<?xml version="1.0" encoding="UTF-8"?>
<svg version="1.1" xmlns="http://www.w3.org/2000/svg" width="517" height="631">
<path d="M0 0 C1.23959221 -0.0076664 1.23959221 -0.0076664 2.50422668 -0.01548767 C5.24157928 -0.02940862 7.97868062 -0.02842429 10.71606445 -0.02612305 C12.62075392 -0.03001011 14.52544253 -0.0343448 16.43013 -0.03910828 C20.42740687 -0.04657696 24.42459543 -0.04627561 28.421875 -0.04101562 C33.53179424 -0.03523621 38.64134923 -0.05211181 43.75120831 -0.0753603 C47.68815711 -0.09013471 51.62501911 -0.09096402 55.56199074 -0.08785057 C57.44495169 -0.08836245 59.32791767 -0.09357507 61.21085167 -0.10366249 C63.85304321 -0.11607421 66.49453738 -0.10920585 69.13671875 -0.09765625 C69.90740692 -0.10529999 70.67809509 -0.11294373 71.47213745 -0.12081909 C76.11178805 -0.07625536 79.77758256 0.70105058 84.0582552 2.50637531 C93.44108364 6.43782376 111.17613288 13.46724538 120.8918457 10.2746582 C125.32337293 9.02136691 125.32337293 9.02136691 127.8293457 10.13793945 C128.5099707 10.61618164 129.1905957 11.09442383 129.8918457 11.5871582 C135.92589826 15.46876515 142.30417106 18.41407022 148.79052734 21.44628906 C153.00234478 23.41908162 157.1951133 25.40158065 161.31762695 27.5559082 C162.00002441 27.91056152 162.68242187 28.26521484 163.38549805 28.63061523 C165.18292537 29.57289879 166.973269 30.52866156 168.76293945 31.4855957 C180.23565635 36.8908962 193.73991517 39.05004967 206.0168457 42.0871582 C208.70305996 42.75387956 211.38912985 43.42118045 214.07519531 44.08850098 C215.85783157 44.53128168 217.64054589 44.97374824 219.42333984 45.41589355 C224.44056142 46.66113111 229.45349629 47.92120939 234.4621582 49.20043945 C248.42008275 52.75844022 262.42680332 55.99631317 276.49438477 59.08374023 C290.11367842 62.07654876 303.69410382 65.22654593 317.26708984 68.42236328 C329.03224322 71.18404901 340.82210409 73.82680512 352.62036133 76.44262695 C354.30162507 76.81575233 355.98287921 77.18892096 357.66412354 77.56213379 C361.73992056 78.46680673 365.81584656 79.37089637 369.8918457 80.2746582 C369.98552939 101.39849826 370.05594225 122.52230377 370.09909439 143.64630985 C370.11966845 153.45584648 370.14768978 163.26525358 370.19360352 173.07470703 C370.23362988 181.63044767 370.25931594 190.18609445 370.26819968 198.74192613 C370.27338783 203.26692773 370.28547273 207.79166093 370.31476593 212.316576 C370.34218554 216.58721804 370.35023791 220.85748454 370.34427643 225.12820625 C370.34536493 226.68449453 370.35315931 228.24079713 370.3686676 229.79700851 C370.46787731 240.27834678 368.94266633 249.25806678 365.8918457 259.2746582 C364.89897649 263.28319969 363.98962318 267.30913162 363.0793457 271.3371582 C362.56013859 273.60806567 362.0405938 275.87889595 361.52075195 278.1496582 C361.25407715 279.31754883 360.98740234 280.48543945 360.71264648 281.6887207 C356.70309911 299.20574386 352.56643595 316.68983085 348.31173706 334.14862061 C346.1782909 342.90732396 344.08664938 351.67352085 342.0793457 360.4621582 C330.13818915 412.56633425 330.13818915 412.56633425 324.0793457 435.0246582 C323.71788452 436.42083374 323.71788452 436.42083374 323.34912109 437.84521484 C319.75516825 450.70835477 312.38991083 459.64994518 300.8918457 466.2746582 C287.98197718 473.08537624 271.10974793 469.2992958 257.8918457 465.2746582 C255.53438578 464.39273075 253.29629324 463.44491056 251.04492188 462.32397461 C244.51802791 459.14304817 237.67842609 456.82852767 230.77856445 454.6105957 C229.67681633 454.25632507 229.67681633 454.25632507 228.55281067 453.89489746 C227.4246418 453.53228821 227.4246418 453.53228821 226.27368164 453.16235352 C210.87607677 448.21072931 196.21979419 442.87587031 181.8918457 435.2746582 C181.5618457 436.2646582 181.2318457 437.2546582 180.8918457 438.2746582 C180.2318457 438.2746582 179.5718457 438.2746582 178.8918457 438.2746582 C178.6340332 438.82637695 178.3762207 439.3780957 178.1105957 439.9465332 C176.71221445 442.61779995 175.10421265 445.04317729 173.3918457 447.5246582 C172.7834082 448.41668945 172.1749707 449.3087207 171.5480957 450.2277832 C171.0015332 450.90325195 170.4549707 451.5787207 169.8918457 452.2746582 C169.2318457 452.2746582 168.5718457 452.2746582 167.8918457 452.2746582 C167.64821289 452.82379883 167.40458008 453.37293945 167.15356445 453.9387207 C163.08273498 461.47542667 156.69235236 468.13958175 149.8918457 473.2746582 C149.2318457 473.2746582 148.5718457 473.2746582 147.8918457 473.2746582 C146.94576763 476.02427332 146.94576763 476.02427332 146.8918457 479.2746582 C155.63535745 489.11716957 166.95838908 497.09337184 177.8918457 504.2746582 C178.86661865 504.91636963 178.86661865 504.91636963 179.86108398 505.57104492 C184.84716201 508.84363738 189.86264548 512.06881645 194.8918457 515.2746582 C195.55587402 515.6989209 196.21990234 516.12318359 196.90405273 516.56030273 C206.24053013 522.51099904 215.74266856 528.129188 225.34106445 533.64575195 C229.75568425 536.18678337 234.126474 538.7916888 238.47705078 541.44116211 C242.28673433 543.74827327 246.12916751 545.98927487 250.00088501 548.190979 C252.57085085 549.6539025 255.13467638 551.12744054 257.69854736 552.60101318 C258.97153295 553.32888474 260.24728915 554.05193689 261.52606201 554.76959229 C271.19210786 560.19795177 280.76903974 566.14934649 287.0793457 575.5246582 C289.36536636 586.07552278 287.70171929 595.46466933 285.3293457 605.8371582 C285.10255127 606.86502441 284.87575684 607.89289062 284.64208984 608.9519043 C282.61679527 617.21437182 279.16809399 623.97831418 274.8918457 631.2746582 C210.95404298 632.9185934 210.95404298 632.9185934 184.16821289 624.2956543 C179.11907497 622.72221951 173.9914175 621.59688615 168.8293457 620.4621582 C166.74956093 619.98715915 164.67015634 619.51049342 162.59106445 619.0324707 C160.75527721 618.61336896 158.91948837 618.19427424 157.0836792 617.77526855 C148.43545715 615.80003208 139.78885502 613.8176952 131.1418457 611.8371582 C130.0868689 611.59557983 129.03189209 611.35400146 127.94494629 611.10510254 C113.48606977 607.79374456 99.03334453 604.45854057 84.59106445 601.07543945 C78.6786606 599.69064448 72.76418766 598.31494879 66.84887695 596.94262695 C38.08656001 590.26890058 9.33754671 583.5424606 -19.3581543 576.5871582 C-35.13269584 572.76608354 -50.94037575 569.0974219 -66.7800293 565.5559082 C-78.99436663 562.82378603 -91.20375438 560.07711361 -103.3581543 557.0871582 C-104.29095215 556.86157227 -105.22375 556.63598633 -106.18481445 556.40356445 C-124.15301308 551.91396189 -124.15301308 551.91396189 -131.1081543 546.2746582 C-131.1081543 545.6146582 -131.1081543 544.9546582 -131.1081543 544.2746582 C-131.7681543 544.2746582 -132.4281543 544.2746582 -133.1081543 544.2746582 C-140.78685817 534.54213233 -144.20633694 524.58667771 -143.1081543 512.2746582 C-141.37001757 498.55747108 -137.81252128 485.12006838 -134.61975098 471.68785095 C-133.4094296 466.58240858 -132.23399566 461.46964824 -131.07299805 456.3527832 C-125.75990796 432.97555658 -120.01653923 409.72023445 -114.16426086 386.47265625 C-109.72416104 368.81526719 -105.50654897 351.10766909 -101.4465332 333.35913086 C-99.40708105 324.4793804 -97.26627129 315.62610228 -95.1081543 306.7746582 C-92.54257322 296.24628915 -90.02580932 285.709256 -87.6081543 275.14575195 C-84.74271978 262.63790286 -81.806144 250.14674772 -78.87625122 237.65386963 C-76.13179353 225.95077471 -73.4066615 214.24417895 -70.7331543 202.5246582 C-68.94331509 194.69889188 -67.01820444 186.92463744 -64.92871094 179.17358398 C-63.3893184 173.44139662 -62.01300698 167.68083031 -60.6706543 161.8996582 C-57.66970244 149.06106218 -54.09234023 136.38514804 -50.0456543 123.8371582 C-48.42480106 118.63474217 -47.20829801 113.4048978 -46.0456543 108.0871582 C-43.1971583 95.09759688 -39.74707644 82.2691823 -36.34399414 69.41674805 C-34.08631905 60.87995866 -31.85117336 52.3414109 -29.7565918 43.76293945 C-29.57636978 43.02738831 -29.39614777 42.29183716 -29.21046448 41.53399658 C-28.37752589 38.12868214 -27.55404919 34.7215131 -26.74560547 31.31030273 C-23.1504803 16.52648047 -17.66370688 -0.05604488 0 0 Z " fill="#F1EFF3" transform="translate(147.108154296875,-0.274658203125)"/>
<path d="M0 0 C0 45.54 0 91.08 0 138 C16.83 138 33.66 138 51 138 C76.50019916 141.64288559 97.9049026 148.48431172 114.5 168.9453125 C120.97402865 177.81338299 125.34508037 186.34089199 128 197 C128.66 199.64 129.32 202.28 130 205 C130 211.93 130 218.86 130 226 C87.1 226 44.2 226 0 226 C0 244.15 0 262.3 0 281 C-5.22490514 301.89962054 -10.64727462 318.91642648 -25 335 C-25.72574219 335.81984375 -26.45148438 336.6396875 -27.19921875 337.484375 C-36.91281858 347.82414077 -48.64348275 355.28480299 -62 360 C-62.81210938 360.30550781 -63.62421875 360.61101562 -64.4609375 360.92578125 C-74.85059418 364.66676685 -84.85295331 364 -96 364 C-96 318.46 -96 272.92 -96 226 C-114.15 226 -132.3 226 -151 226 C-175.90261303 221.33076006 -196.80062166 213.16954094 -212.4375 192.4375 C-224.34212293 175.01189252 -226 159.24310912 -226 138 C-183.1 138 -140.2 138 -96 138 C-96 119.52 -96 101.04 -96 82 C-92.50874435 64.54372177 -92.50874435 64.54372177 -89.25 57.25 C-88.89929443 56.445625 -88.54858887 55.64125 -88.18725586 54.8125 C-77.92589115 31.83964108 -59.93194813 13.85372378 -36.703125 4.03125 C-24.06471097 -0.79034148 -14.54469759 0 0 0 Z " fill="#5271FE" transform="translate(309,104)"/>
<path d="M0 0 C6.4465849 1.57504866 12.89289729 3.15120934 19.33901978 4.72814941 C21.61434952 5.28471163 23.88971986 5.84110792 26.16513062 6.39733887 C37.66232399 9.2083043 49.15752442 12.02281093 60.62817383 14.94042969 C73.23609251 18.14581636 85.8997873 21.02120584 98.60473633 23.80957031 C112.22329972 26.80220433 125.80298895 29.95205981 139.37524414 33.14770508 C151.14039752 35.90939081 162.93025839 38.55214691 174.72851562 41.16796875 C176.40977936 41.54109412 178.0910335 41.91426275 179.77227783 42.28747559 C183.84807486 43.19214853 187.92400085 44.09623817 192 45 C192.09368369 66.12384006 192.16409655 87.24764557 192.20724869 108.37165165 C192.22782274 118.18118827 192.25584408 127.99059537 192.30175781 137.80004883 C192.34178418 146.35578947 192.36747023 154.91143625 192.37635398 163.46726793 C192.38154213 167.99226953 192.39362703 172.51700273 192.42292023 177.0419178 C192.45033984 181.31255984 192.4583922 185.58282634 192.45243073 189.85354805 C192.45351923 191.40983633 192.46131361 192.96613892 192.4768219 194.52235031 C192.5760316 205.00368858 191.05082063 213.98340858 188 224 C187.00713079 228.00854149 186.09777748 232.03447342 185.1875 236.0625 C184.66829289 238.33340747 184.1487481 240.60423775 183.62890625 242.875 C183.36223145 244.04289063 183.09555664 245.21078125 182.82080078 246.4140625 C178.81125341 263.93108565 174.67459024 281.41517264 170.41989136 298.8739624 C168.2864452 307.63266576 166.19480367 316.39886265 164.1875 325.1875 C152.24634344 377.29167605 152.24634344 377.29167605 146.1875 399.75 C145.82603882 401.14617554 145.82603882 401.14617554 145.45727539 402.57055664 C141.86332254 415.43369657 134.49806513 424.37528698 123 431 C110.09013147 437.81071804 93.21790223 434.02463759 80 430 C77.64254007 429.11807255 75.40444754 428.17025236 73.15307617 427.04931641 C66.62618221 423.86838997 59.78658039 421.55386946 52.88671875 419.3359375 C51.78497063 418.98166687 51.78497063 418.98166687 50.66096497 418.62023926 C49.5327961 418.25763 49.5327961 418.25763 48.38183594 417.88769531 C32.98423107 412.93607111 18.32794849 407.60121211 4 400 C3.67 400.99 3.34 401.98 3 403 C2.34 403 1.68 403 1 403 C0.7421875 403.55171875 0.484375 404.1034375 0.21875 404.671875 C-1.17963125 407.34314175 -2.78763305 409.76851909 -4.5 412.25 C-5.1084375 413.14203125 -5.716875 414.0340625 -6.34375 414.953125 C-7.16359375 415.96632813 -7.16359375 415.96632813 -8 417 C-8.66 417 -9.32 417 -10 417 C-10.36544922 417.82371094 -10.36544922 417.82371094 -10.73828125 418.6640625 C-14.80911073 426.20076847 -21.19949335 432.86492355 -28 438 C-28.66 438 -29.32 438 -30 438 C-30.85650653 440.80045046 -30.85650653 440.80045046 -31 444 C-29.12491838 446.2085766 -29.12491838 446.2085766 -27 448 C-27 448.99 -27 449.98 -27 451 C-30.71268094 449.45872649 -32.98115698 447.19156766 -35.75 444.3125 C-39.50595436 440.46195124 -43.34349305 436.87967471 -47.50390625 433.47265625 C-49 432 -49 432 -50 429 C-50.66 429 -51.32 429 -52 429 C-55 425.53846154 -55 425.53846154 -55 423 C-55.66 423 -56.32 423 -57 423 C-57.33 421.35 -57.66 419.7 -58 418 C-57.38253906 417.52691406 -56.76507813 417.05382812 -56.12890625 416.56640625 C-33.73797398 399.08307557 -22.53508087 377.67540437 -17 350 C-16.67 331.85 -16.34 313.7 -16 295 C26.9 295 69.8 295 114 295 C113.11438494 276.40208374 112.0680624 262.69065025 103.48828125 246.890625 C101.14195987 242.33346536 101.14195987 242.33346536 101 240 C101.80922692 237.54583544 102.68533793 235.2474594 103.6875 232.875 C107.17588472 224.10035517 109.29710452 215.27226589 111 206 C111.3403125 204.15148437 111.3403125 204.15148437 111.6875 202.265625 C113.37546941 191.52826403 113.26758656 180.83952331 113 170 C112.98195313 168.87078125 112.96390625 167.7415625 112.9453125 166.578125 C112.57211195 158.27990095 110.67611111 150.2888767 108.81567383 142.21923828 C107.57060534 136.81211002 106.57490111 131.52035728 106 126 C105.34 126 104.68 126 104 126 C103.82984375 125.45472656 103.6596875 124.90945312 103.484375 124.34765625 C101.93099162 119.51398989 100.14200035 114.90748204 98.01953125 110.296875 C96.99843793 107.99648085 96.12509311 105.67178188 95.25 103.3125 C86.80797206 82.10926704 71.51597588 63.38362796 56 47 C55.11183594 46.05769531 54.22367187 45.11539063 53.30859375 44.14453125 C46.7254596 37.35058349 39.62466197 31.55831041 32 26 C31.2776416 25.47051758 30.5552832 24.94103516 29.81103516 24.39550781 C16.31130586 14.20933352 16.31130586 14.20933352 1.9375 5.375 C0.9784375 4.694375 0.9784375 4.694375 0 4 C0 2.68 0 1.36 0 0 Z " fill="#EEF2F7" transform="translate(325,35)"/>
<path d="M0 0 C4.16740383 0.91777044 7.60015119 2.83490388 11.3125 4.875 C18.40646537 8.70338971 25.59813778 12.28245816 32.875 15.75 C33.81255127 16.19714355 34.75010254 16.64428711 35.71606445 17.10498047 C36.63218506 17.53955566 37.54830566 17.97413086 38.4921875 18.421875 C39.39163086 18.85048828 40.29107422 19.27910156 41.21777344 19.72070312 C43.15058428 20.60942977 45.10396043 21.45422092 47.07128906 22.26367188 C48.0609668 22.67681641 49.05064453 23.08996094 50.0703125 23.515625 C51.41633545 24.05364746 51.41633545 24.05364746 52.78955078 24.60253906 C55.58163174 26.36771151 55.96482747 27.93306218 57 31 C59.03373214 32.38814091 59.03373214 32.38814091 61.5 33.3125 C66.45160925 35.58583567 70.27838419 38.42947344 74.44921875 41.90625 C76.98347436 43.98643531 79.58272914 45.90674864 82.25 47.8125 C84.16884373 49.20533902 86.08538935 50.60134784 88 52 C89.57201172 53.14662109 89.57201172 53.14662109 91.17578125 54.31640625 C106.40428011 65.69936957 119.97376854 79.51098112 131 95 C131.41121094 95.57218262 131.82242188 96.14436523 132.24609375 96.73388672 C141.51227586 109.75633658 150.84745255 124.1360118 155.296875 139.578125 C155.95654759 141.85033059 156.77232495 143.91161489 157.75 146.0625 C159 149 159 149 159 152 C159.66 152 160.32 152 161 152 C170.6697693 191.14300781 173.73670967 230.41600814 156 268 C155.43023437 267.27296875 154.86046875 266.5459375 154.2734375 265.796875 C143.84298973 252.9649152 131.45437971 244.63394534 116 239 C115.29101562 238.70480469 114.58203125 238.40960938 113.8515625 238.10546875 C92.93208987 229.97011828 56.67328917 233.34653508 39 233 C39 187.46 39 141.92 39 95 C33.72 95 28.44 95 23 95 C16.09280534 91.58903967 11.74455201 86.97738836 7 81 C6.29875 80.154375 5.5975 79.30875 4.875 78.4375 C-3.14371069 68.01317611 -8.40494259 58.51041611 -8.3125 45 C-8.30903564 44.16984375 -8.30557129 43.3396875 -8.30200195 42.484375 C-8.11660085 31.79871578 -5.61379537 21.76494217 -2.6953125 11.51953125 C-1.64406336 7.71022959 -0.82353586 3.86428365 0 0 Z " fill="#AADBEC" transform="translate(270,9)"/>
<path d="M0 0 C3.43559164 0.85889791 5.33592409 1.61890077 8.25 3.4375 C8.95640625 3.86933594 9.6628125 4.30117187 10.390625 4.74609375 C10.92171875 5.15988281 11.4528125 5.57367188 12 6 C12 6.66 12 7.32 12 8 C13.32 8.33 14.64 8.66 16 9 C16 9.66 16 10.32 16 11 C17.05767578 11.37125 17.05767578 11.37125 18.13671875 11.75 C21.36887443 13.16103659 23.96328902 14.9250726 26.8125 17 C27.78832031 17.70125 28.76414062 18.4025 29.76953125 19.125 C30.50558594 19.74375 31.24164063 20.3625 32 21 C32 21.66 32 22.32 32 23 C32.89078247 23.4029126 32.89078247 23.4029126 33.79956055 23.81396484 C36.00987445 25.00532232 37.44647183 26.20211898 39.20703125 27.9765625 C39.7906543 28.56131348 40.37427734 29.14606445 40.97558594 29.74853516 C41.58176758 30.36776855 42.18794922 30.98700195 42.8125 31.625 C43.43543945 32.25583496 44.05837891 32.88666992 44.70019531 33.53662109 C56.46196372 45.5168839 56.46196372 45.5168839 59 51 C59.66 51 60.32 51 61 51 C62.29345703 52.52197266 62.29345703 52.52197266 63.7578125 54.6640625 C64.29728516 55.44982666 64.83675781 56.23559082 65.39257812 57.04516602 C65.96427734 57.89651123 66.53597656 58.74785645 67.125 59.625 C67.70958984 60.48859131 68.29417969 61.35218262 68.89648438 62.24194336 C73.63651602 69.3133635 77.97898285 76.49666656 82 84 C82.45632813 84.81984375 82.91265625 85.6396875 83.3828125 86.484375 C87.53864067 94.27328565 90.2533975 102.63634039 93 111 C93.23783203 111.71671875 93.47566406 112.4334375 93.72070312 113.171875 C97.06612709 123.38520274 99.03498027 133.29836326 100 144 C99.34515625 143.62488281 98.6903125 143.24976563 98.015625 142.86328125 C91.18938134 139.03557118 84.29281229 135.83216011 77 133 C76.28714844 132.7009375 75.57429688 132.401875 74.83984375 132.09375 C53.84073858 124.00160928 17.83693724 127.34974387 0 127 C0 85.09 0 43.18 0 0 Z " fill="#E7EDF3" transform="translate(309,115)"/>
<path d="M0 0 C0.33 0 0.66 0 1 0 C1.77535738 27.36713323 1.77535738 27.36713323 -2.35400391 39.86328125 C-3.76424498 44.52784279 -4.74294825 49.31081553 -5.8125 54.0625 C-6.33144631 56.33346708 -6.85099223 58.60429721 -7.37109375 60.875 C-7.63776855 62.04289062 -7.90444336 63.21078125 -8.17919922 64.4140625 C-12.18874659 81.93108565 -16.32540976 99.41517264 -20.58010864 116.8739624 C-22.7135548 125.63266576 -24.80519633 134.39886265 -26.8125 143.1875 C-38.75365656 195.29167605 -38.75365656 195.29167605 -44.8125 217.75 C-45.05347412 218.68078369 -45.29444824 219.61156738 -45.54272461 220.57055664 C-49.13667746 233.43369657 -56.50193487 242.37528698 -68 249 C-80.90986853 255.81071804 -97.78209777 252.02463759 -111 248 C-114.10421093 246.83871246 -117.03181181 245.46690382 -120 244 C-126.42737008 241.24848371 -132.94876502 238.98904314 -139.62890625 236.9296875 C-142 236 -142 236 -143 234 C-141.84242188 233.93941406 -140.68484375 233.87882813 -139.4921875 233.81640625 C-137.95311543 233.73194498 -136.41405345 233.64729982 -134.875 233.5625 C-134.11445313 233.52318359 -133.35390625 233.48386719 -132.5703125 233.44335938 C-128.31490797 233.20490998 -124.19629174 232.79769763 -120 232 C-119.83564453 231.03513672 -119.83564453 231.03513672 -119.66796875 230.05078125 C-116.65629974 212.88671641 -116.65629974 212.88671641 -113.9765625 204.98046875 C-113.00941202 202.0287255 -112.39726207 199.18396353 -111.875 196.125 C-111.70742188 195.15820312 -111.53984375 194.19140625 -111.3671875 193.1953125 C-111.24601562 192.47085938 -111.12484375 191.74640625 -111 191 C-110.01 190.67 -109.02 190.34 -108 190 C-107.71982029 197.45216873 -108.35594295 204.04456602 -110.1875 211.26171875 C-110.40946045 212.17838821 -110.6314209 213.09505768 -110.86010742 214.039505 C-111.56166716 216.92519346 -112.28047115 219.80624573 -113 222.6875 C-113.48292524 224.66052509 -113.96470633 226.6338306 -114.4453125 228.60742188 C-115.61702722 233.40828613 -116.80421126 238.20507798 -118 243 C-117.07960938 243.15339844 -116.15921875 243.30679688 -115.2109375 243.46484375 C-113.015625 243.83072917 -110.8203125 244.19661458 -108.625 244.5625 C-107.75875 244.706875 -106.8925 244.85125 -106 245 C-106 245.66 -106 246.32 -106 247 C-84.47432928 249.87403306 -84.47432928 249.87403306 -65 242 C-63.05841886 240.08855427 -61.59050589 238.22670824 -60 236 C-59.34 236 -58.68 236 -58 236 C-57.33047063 234.33448127 -56.66453847 232.66751637 -56 231 C-55.63479248 230.08637695 -55.26958496 229.17275391 -54.89331055 228.23144531 C-50.76014876 217.31672079 -48.31512641 206.12643214 -45.8125 194.75 C-45.37122658 192.77847022 -44.92917375 190.80711472 -44.48632812 188.8359375 C-42.91244732 181.80136113 -41.3407774 174.77005393 -39.94311523 167.69799805 C-39.2793704 164.34741365 -38.56122419 161.02988511 -37.703125 157.72265625 C-37.46988525 156.81161133 -37.23664551 155.90056641 -36.99633789 154.96191406 C-36.75004639 154.00510742 -36.50375488 153.04830078 -36.25 152.0625 C-34.02965561 143.32291906 -31.98186684 134.56035569 -30.0625 125.75 C-28.10033273 116.77334024 -26.00768827 107.84441914 -23.75 98.9375 C-20.7521365 87.10676668 -17.8830045 75.24909947 -15.0625 63.375 C-14.7448468 62.03805588 -14.7448468 62.03805588 -14.42077637 60.67410278 C-11.09623735 46.67375111 -7.79352612 32.66820282 -4.51196289 18.65771484 C-3.05148161 12.42705762 -1.57813162 6.20205726 0 0 Z " fill="#D3DAE2" transform="translate(516,217)"/>
<path d="M0 0 C4.66553374 3.23138134 8.28715409 6.4584397 10 12 C10.8545756 20.07573942 10.45166997 27.06063211 6 34 C3.6875 36.8125 3.6875 36.8125 1 39 C0.071875 39.763125 -0.85625 40.52625 -1.8125 41.3125 C-7.83443552 44.52861062 -15.44042261 43.85531099 -22 43 C-29.78380879 40.09036343 -33.43829714 34.12340571 -37 27 C-37.77674357 18.4951495 -38.42132384 10.73812617 -32.78515625 3.76953125 C-23.44999914 -5.4839177 -11.34082216 -6.93287996 0 0 Z " fill="#F0F4F8" transform="translate(78,457)"/>
<path d="M0 0 C1.65 0 3.3 0 5 0 C5 44.22 5 88.44 5 134 C-2.87737792 126.12262208 -4.06187723 112.05108619 -6.43457031 101.49121094 C-6.79510832 99.90272655 -7.16817353 98.31699752 -7.55761719 96.73535156 C-10.35454507 85.10819664 -10.15840283 73.35029954 -10.13037109 61.46484375 C-10.12498443 58.74213158 -10.13035728 56.01958234 -10.13671875 53.296875 C-10.13605834 51.54687464 -10.13477795 49.79687438 -10.1328125 48.046875 C-10.13483673 47.24256042 -10.13686096 46.43824585 -10.13894653 45.60955811 C-10.08733536 33.08733536 -10.08733536 33.08733536 -8 31 C-7.72053232 29.15004545 -7.47785498 27.29451808 -7.25 25.4375 C-6.0189167 16.96088066 -3.85782365 7.7156473 0 0 Z " fill="#EFDBC7" transform="translate(208,330)"/>
<path d="M0 0 C1.98 0.99 1.98 0.99 4 2 C4.33 1.34 4.66 0.68 5 0 C5.78761719 0.68964844 6.57523437 1.37929688 7.38671875 2.08984375 C14.91524789 8.61363436 22.66447142 14.52507841 31 20 C31.97477295 20.64171143 31.97477295 20.64171143 32.96923828 21.29638672 C37.95531631 24.56897917 42.97079978 27.79415825 48 31 C48.66402832 31.4242627 49.32805664 31.84852539 50.01220703 32.28564453 C59.34868443 38.23634084 68.85082286 43.8545298 78.44921875 49.37109375 C82.86383855 51.91212517 87.2346283 54.51703059 91.58520508 57.16650391 C95.39488863 59.47361506 99.23732181 61.71461667 103.10903931 63.9163208 C105.67900515 65.3792443 108.24283068 66.85278234 110.80670166 68.32635498 C112.07968724 69.05422654 113.35544345 69.77727868 114.63421631 70.49493408 C124.30026215 75.92329357 133.87719404 81.87468829 140.1875 91.25 C143.98879151 108.79442237 138.52174403 129.8786857 129.3203125 145.03515625 C128.88460937 145.68355469 128.44890625 146.33195313 128 147 C125.69 147 123.38 147 121 147 C121.91072266 145.72769531 121.91072266 145.72769531 122.83984375 144.4296875 C125.01589834 141.16225195 126.30481597 137.85239358 127.5625 134.125 C128.87686778 130.28269173 130.18456352 126.46002238 131.6875 122.6875 C135.25961145 112.65156782 137.76392794 99.60624264 134.0078125 89.26953125 C130.32624655 83.89278097 124.61508277 81.02234656 119 78 C117.24629577 76.99475524 115.49270552 75.98929861 113.7421875 74.97851562 C109.39764653 72.47241137 105.02906783 70.01469599 100.63671875 67.59375 C95.98878259 65.01494257 91.42588828 62.30818865 86.875 59.5625 C86.02897217 59.05315918 85.18294434 58.54381836 84.3112793 58.01904297 C81.53941148 56.34840415 78.76951518 54.67453574 76 53 C75.00339355 52.39816895 74.00678711 51.79633789 72.97998047 51.17626953 C69.92248875 49.32858018 66.86712686 47.47742113 63.8125 45.625 C62.86938965 45.05467041 61.9262793 44.48434082 60.95458984 43.89672852 C55.86073966 40.80031577 50.86537439 37.59983714 45.92260742 34.26806641 C43.75910721 32.84111782 41.54660163 31.57510386 39.25 30.375 C35.8574654 28.5427949 32.98166732 26.45549073 30 24 C29.01 23.67 28.02 23.34 27 23 C27 22.34 27 21.68 27 21 C25.68 20.67 24.36 20.34 23 20 C23 19.34 23 18.68 23 18 C22.236875 17.71125 21.47375 17.4225 20.6875 17.125 C18 16 18 16 15 14 C15 13.34 15 12.68 15 12 C14.28457031 11.7525 13.56914062 11.505 12.83203125 11.25 C9.68590294 9.86136405 7.36189037 8.15536054 4.6875 6 C3.80449219 5.29875 2.92148437 4.5975 2.01171875 3.875 C1.34785156 3.25625 0.68398438 2.6375 0 2 C0 1.34 0 0.68 0 0 Z " fill="#EEDFE9" transform="translate(294,484)"/>
<path d="M0 0 C2.97 0.495 2.97 0.495 6 1 C6 1.66 6 2.32 6 3 C6.58265625 3.04898438 7.1653125 3.09796875 7.765625 3.1484375 C14.57464321 3.7693857 21.26897784 4.80877099 28 6 C28.33 4.35 28.66 2.7 29 1 C36.19113425 1.66894272 42.96078522 3.42775243 49.9375 5.25 C59.54214225 7.70353221 69.15617401 9.98141874 78.875 11.9375 C79.9074585 12.14858398 80.93991699 12.35966797 82.00366211 12.57714844 C85.94892976 13.35270543 89.46387526 14.01677262 93.49609375 13.890625 C96 14 96 14 97.79296875 15.64453125 C98.25316406 16.35996094 98.71335937 17.07539062 99.1875 17.8125 C101.2203809 20.89670803 101.2203809 20.89670803 103.67578125 23.63671875 C105 25 105 25 105 27 C106.485 27.495 106.485 27.495 108 28 C104.36059784 29.2769545 101.7738056 28.72337064 98.0625 27.85546875 C96.92039062 27.59056641 95.77828125 27.32566406 94.6015625 27.05273438 C93.41304688 26.76720703 92.22453125 26.48167969 91 26.1875 C89.81148438 25.91357422 88.62296875 25.63964844 87.3984375 25.35742188 C77.77108034 23.09184177 77.77108034 23.09184177 74 21 C74 20.34 74 19.68 74 19 C70.04 19.495 70.04 19.495 66 20 C65.505 19.01 65.505 19.01 65 18 C62.88672575 17.09274566 62.88672575 17.09274566 60.4375 16.375 C59.61121094 16.11460938 58.78492188 15.85421875 57.93359375 15.5859375 C57.29550781 15.39257812 56.65742188 15.19921875 56 15 C56 15.66 56 16.32 56 17 C53.02069594 16.3756494 50.04155539 15.75053509 47.0625 15.125 C46.23169922 14.95097656 45.40089844 14.77695313 44.54492188 14.59765625 C39.65625632 13.57046582 34.77955682 12.50733322 29.9140625 11.375 C27.58258884 10.91822149 25.36831683 10.84720537 23 11 C23 10.34 23 9.68 23 9 C22.31292969 8.86722656 21.62585938 8.73445313 20.91796875 8.59765625 C20.01691406 8.42105469 19.11585938 8.24445313 18.1875 8.0625 C17.29417969 7.88847656 16.40085938 7.71445313 15.48046875 7.53515625 C13 7 13 7 10 6 C10 6.66 10 7.32 10 8 C9.01 8 8.02 8 7 8 C7 7.34 7 6.68 7 6 C6.21625 5.7525 5.4325 5.505 4.625 5.25 C1.67682892 3.84610901 1.0975223 2.99324263 0 0 Z " fill="#DED8D1" transform="translate(176,68)"/>
<path d="M0 0 C4.66553374 3.23138134 8.28715409 6.4584397 10 12 C10.8545756 20.07573942 10.45166997 27.06063211 6 34 C3.6875 36.8125 3.6875 36.8125 1 39 C0.071875 39.763125 -0.85625 40.52625 -1.8125 41.3125 C-7.83443552 44.52861062 -15.44042261 43.85531099 -22 43 C-29.78380879 40.09036343 -33.43829714 34.12340571 -37 27 C-37.77674357 18.4951495 -38.42132384 10.73812617 -32.78515625 3.76953125 C-23.44999914 -5.4839177 -11.34082216 -6.93287996 0 0 Z M-30.66796875 6.7578125 C-34.83519917 12.33746556 -34.96895726 18.27163325 -34 25 C-32.03030846 31.67934507 -28.04932071 35.54271991 -22.171875 39.109375 C-17.1212982 41.18047484 -10.85848668 40.75023405 -5.6484375 39.3828125 C-0.23607375 37.02143372 3.02613199 33.01132775 6 28 C7.89508131 22.31475607 8.21819074 15.94976186 5.90625 10.3515625 C2.07786928 4.22208061 -2.15284976 1.28238341 -9 -1 C-18.34751476 -2.21057978 -24.20644644 -0.05175434 -30.66796875 6.7578125 Z " fill="#94A4A9" transform="translate(78,457)"/>
<path d="M0 0 C4.875 1.875 4.875 1.875 6 3 C6.45765667 5.98889359 6.70320951 8.98969648 7 12 C8.98 9.36 10.96 6.72 13 4 C14.65 4.33 16.3 4.66 18 5 C17.505 5.886875 17.01 6.77375 16.5 7.6875 C15.02482241 10.94518385 14.85830131 12.53428611 15 16 C15.36351563 15.3503125 15.72703125 14.700625 16.1015625 14.03125 C16.60429688 13.1959375 17.10703125 12.360625 17.625 11.5 C18.11226562 10.6646875 18.59953125 9.829375 19.1015625 8.96875 C21 7 21 7 24.2109375 6.71875 C25.59152344 6.85796875 25.59152344 6.85796875 27 7 C25.78102834 9.23528551 24.55044684 11.46275173 23.3125 13.6875 C22.97283203 14.31333984 22.63316406 14.93917969 22.28320312 15.58398438 C19.96716053 19.71822864 17.49703884 22.7969329 14 26 C11.53199953 24.84826645 9.95216435 23.95216435 8 22 C7.67 22.33 7.34 22.66 7 23 C4.5 23.125 4.5 23.125 2 23 C0.34920558 21.34920558 0.77450553 19.36263821 0.68359375 17.08984375 C0.64169922 16.10048828 0.59980469 15.11113281 0.55664062 14.09179688 C0.51732422 13.05087891 0.47800781 12.00996094 0.4375 10.9375 C0.39431641 9.89271484 0.35113281 8.84792969 0.30664062 7.77148438 C0.20018775 5.18113116 0.0981724 2.59067814 0 0 Z " fill="#99A3B7" transform="translate(71,516)"/>
<path d="M0 0 C7.38318766 0.68616986 14.39006595 2.47538882 21.5625 4.3125 C23.42310059 4.78345093 23.42310059 4.78345093 25.32128906 5.26391602 C33.89887965 7.44200412 42.46428242 9.66283924 51 12 C51 13.65 51 15.3 51 17 C43.66151451 17.39618817 37.06393096 15.90856341 29.9375 14.25 C28.74261963 13.97921631 27.54773926 13.70843262 26.31665039 13.42944336 C18.65930099 11.6757924 11.06757953 9.76888062 3.52734375 7.56640625 C1.02244228 6.72545045 1.02244228 6.72545045 -1 8 C-1.125 2.25 -1.125 2.25 0 0 Z " fill="#EEE2C3" transform="translate(205,69)"/>
<path d="M0 0 C0.66 0 1.32 0 2 0 C2.67431085 9.06573471 0.89846905 17.19016837 -1.25317383 25.91674805 C-1.81330923 28.19078531 -2.35438186 30.46872817 -2.89257812 32.74804688 C-3.24629505 34.22161883 -3.60107646 35.69493577 -3.95703125 37.16796875 C-4.11653763 37.83587936 -4.27604401 38.50378998 -4.44038391 39.19194031 C-5.62075582 43.94914046 -7.21526374 48.4344916 -9 53 C-16.91130499 51.49958009 -24.59369417 49.17413107 -32 46 C-32.33 45.34 -32.66 44.68 -33 44 C-31.84242188 43.93941406 -30.68484375 43.87882812 -29.4921875 43.81640625 C-27.95311543 43.73194498 -26.41405345 43.64729982 -24.875 43.5625 C-24.11445313 43.52318359 -23.35390625 43.48386719 -22.5703125 43.44335938 C-18.31490797 43.20490998 -14.19629174 42.79769763 -10 42 C-9.83564453 41.03513672 -9.83564453 41.03513672 -9.66796875 40.05078125 C-6.65184329 22.86131829 -6.65184329 22.86131829 -3.97265625 14.9765625 C-3.01356835 12.04152242 -2.43305546 9.23162637 -1.9375 6.1875 C-1.10806452 1.10806452 -1.10806452 1.10806452 0 0 Z " fill="#C0B9C2" transform="translate(406,407)"/>
<path d="M0 0 C0.45375 0.495 0.9075 0.99 1.375 1.5 C2.87635519 3.22609337 2.87635519 3.22609337 5 3 C6.83098913 20.0553247 1.52970315 39.81822283 -8 54 C-10.31 54 -12.62 54 -15 54 C-14.39285156 53.15179687 -13.78570312 52.30359375 -13.16015625 51.4296875 C-10.98410166 48.16225195 -9.69518403 44.85239358 -8.4375 41.125 C-7.12313222 37.28269173 -5.81543648 33.46002238 -4.3125 29.6875 C-0.83758426 19.92464149 -0.44807756 10.27040938 0 0 Z " fill="#D8D5DD" transform="translate(430,577)"/>
<path d="M0 0 C1.65 0 3.3 0 5 0 C6.32 3.63 7.64 7.26 9 11 C9.391875 9.865625 9.78375 8.73125 10.1875 7.5625 C10.785625 6.386875 11.38375 5.21125 12 4 C14.61328125 3.27734375 14.61328125 3.27734375 17 3 C15.83795007 9.54849313 14.26616615 15.74538144 12 22 C10.35 22.33 8.7 22.66 7 23 C6.32942113 21.2097939 5.6636531 19.41778511 5 17.625 C4.62875 16.62726562 4.2575 15.62953125 3.875 14.6015625 C3 12 3 12 3 10 C2.34 10 1.68 10 1 10 C0.8453125 11.6396875 0.8453125 11.6396875 0.6875 13.3125 C0 17 0 17 -1.375 18.9375 C-3 20 -3 20 -6 20 C-4.25 4.25 -4.25 4.25 0 0 Z " fill="#99A2B7" transform="translate(37,508)"/>
<path d="M0 0 C2.10494301 0.08708038 4.20902142 0.19525693 6.3125 0.3125 C8.07013672 0.39951172 8.07013672 0.39951172 9.86328125 0.48828125 C13.24701022 1.04029681 13.98055653 1.36751119 16 4 C16.60199219 4.65097656 17.20398438 5.30195312 17.82421875 5.97265625 C18.74654297 7.00712891 18.74654297 7.00712891 19.6875 8.0625 C20.31011719 8.75472656 20.93273437 9.44695312 21.57421875 10.16015625 C23 12 23 12 23 14 C24.485 14.495 24.485 14.495 26 15 C22.36059784 16.2769545 19.7738056 15.72337064 16.0625 14.85546875 C14.92039062 14.59056641 13.77828125 14.32566406 12.6015625 14.05273438 C11.41304688 13.76720703 10.22453125 13.48167969 9 13.1875 C7.81148438 12.91357422 6.62296875 12.63964844 5.3984375 12.35742188 C-4.22891966 10.09184177 -4.22891966 10.09184177 -8 8 C-8 7.34 -8 6.68 -8 6 C-5.69 6 -3.38 6 -1 6 C-0.67 4.02 -0.34 2.04 0 0 Z " fill="#DAE4ED" transform="translate(258,81)"/>
<path d="M0 0 C3.11140622 0.64373922 5.74422854 1.44055843 8.625 2.75 C7.635 4.07 6.645 5.39 5.625 6.75 C2.985 6.42 0.345 6.09 -2.375 5.75 C-2.375 6.74 -2.375 7.73 -2.375 8.75 C-0.725 9.08 0.925 9.41 2.625 9.75 C2.295 11.07 1.965 12.39 1.625 13.75 C-1.345 13.255 -1.345 13.255 -4.375 12.75 C-4.045 13.74 -3.715 14.73 -3.375 15.75 C-0.36652582 16.97520264 -0.36652582 16.97520264 2.625 17.75 C1.965 19.07 1.305 20.39 0.625 21.75 C-2.52211179 21.9645758 -4.82117664 21.98318878 -7.75 20.75 C-9.81107945 18.21328683 -9.86963149 16.22682163 -9.703125 13.015625 C-9.13646782 9.1029921 -8.15921794 5.28906604 -6.375 1.75 C-3.375 -0.25 -3.375 -0.25 0 0 Z " fill="#98A1B6" transform="translate(61.375,513.25)"/>
<path d="M0 0 C0.33 0 0.66 0 1 0 C2.6564501 6.31480118 3.35602726 12.22837248 3.3125 18.75 C3.30686035 19.65685547 3.3012207 20.56371094 3.29541016 21.49804688 C2.93903743 41.94890126 -1.25035332 62.45954601 -10 81 C-12 78 -12 78 -11.64794922 76.01733398 C-11.23053467 74.89307007 -11.23053467 74.89307007 -10.8046875 73.74609375 C-10.35150146 72.47813965 -10.35150146 72.47813965 -9.88916016 71.18457031 C-9.5544873 70.27803711 -9.21981445 69.37150391 -8.875 68.4375 C-1.72081907 47.97591035 0.70687335 29.29554182 -0.68041992 7.69018555 C-0.73431885 6.83336182 -0.78821777 5.97653809 -0.84375 5.09375 C-0.89724609 4.32740234 -0.95074219 3.56105469 -1.00585938 2.77148438 C-1 1 -1 1 0 0 Z " fill="#B8C9D8" transform="translate(436,196)"/>
<path d="M0 0 C2.31 0.33 4.62 0.66 7 1 C7 1.66 7 2.32 7 3 C7.99 3 8.98 3 10 3 C10.19401633 4.81181405 10.38004375 6.62448532 10.5625 8.4375 C10.66691406 9.44683594 10.77132813 10.45617187 10.87890625 11.49609375 C10.93884766 12.73552734 10.93884766 12.73552734 11 14 C10 15 10 15 7.71484375 15.09765625 C5.14322917 15.06510417 2.57161458 15.03255208 0 15 C0 10.05 0 5.1 0 0 Z " fill="#D1D7E0" transform="translate(309,227)"/>
<path d="M0 0 C0.99 0 1.98 0 3 0 C3 2.97 3 5.94 3 9 C5.97 9 8.94 9 12 9 C11.67 10.32 11.34 11.64 11 13 C8.36 13 5.72 13 3 13 C3 15.64 3 18.28 3 21 C2.01 21 1.02 21 0 21 C0 18.03 0 15.06 0 12 C-2.97 12 -5.94 12 -9 12 C-9 11.01 -9 10.02 -9 9 C-6.36 9 -3.72 9 -1 9 C-1.020625 7.700625 -1.04125 6.40125 -1.0625 5.0625 C-1.08399454 3.70834367 -1.07148199 2.35243917 -1 1 C-0.67 0.67 -0.34 0.34 0 0 Z " fill="#9AAAAF" transform="translate(63,466)"/>
<path d="M0 0 C1 4 1 4 0 7 C1.299375 7.2165625 1.299375 7.2165625 2.625 7.4375 C4.875 7.8125 7.125 8.1875 9.375 8.5625 C10.674375 8.7790625 10.674375 8.7790625 12 9 C12 9.66 12 10.32 12 11 C20.91 11.66 29.82 12.32 39 13 C38.67 13.99 38.34 14.98 38 16 C23.93252412 16.80258183 10.61356609 14.42145183 -2 8 C-1.34 5.36 -0.68 2.72 0 0 Z " fill="#DCE1E8" transform="translate(398,453)"/>
<path d="M0 0 C0.66 0 1.32 0 2 0 C2.35030712 7.95294473 1.42014209 14.98098379 -0.5 22.6875 C-0.73847656 23.68716797 -0.97695313 24.68683594 -1.22265625 25.71679688 C-1.80414379 28.14741481 -2.39665213 30.5747341 -3 33 C-3.33 33 -3.66 33 -4 33 C-4.33 31.02 -4.66 29.04 -5 27 C-5.33 27 -5.66 27 -6 27 C-5.55036928 21.67542567 -4.72509521 17.07380944 -3 12 C-2.43798678 9.10441015 -1.94019097 6.20397941 -1.46484375 3.29296875 C-1 1 -1 1 0 0 Z " fill="#C8CDD5" transform="translate(406,407)"/>
<path d="M0 0 C2 2 2 2 2.265625 4.6171875 C2.21060081 16.08973008 0.58377557 25.95793739 -3.25 36.75 C-3.52529541 37.54229004 -3.80059082 38.33458008 -4.08422852 39.15087891 C-6.20719416 44.85228539 -9.12513597 49.32388204 -13 54 C-13.66 53.67 -14.32 53.34 -15 53 C-14.08927734 51.97326172 -14.08927734 51.97326172 -13.16015625 50.92578125 C-10.80578123 47.7369442 -9.69036802 44.93783431 -8.4375 41.1875 C-8.01726562 39.95 -7.59703125 38.7125 -7.1640625 37.4375 C-6.77992188 36.303125 -6.39578125 35.16875 -6 34 C-5.44554938 32.55937617 -4.88479524 31.12112849 -4.3125 29.6875 C-0.83758426 19.92464149 -0.44807756 10.27040938 0 0 Z " fill="#DAC7D1" transform="translate(430,577)"/>
<path d="M0 0 C5.88738155 2.1056047 11.39976745 4.6772245 16.875 7.6875 C25.98911608 12.68888617 35.48180039 16.83496964 45 21 C45 21.99 45 22.98 45 24 C40.91192697 23.26703741 37.40741715 21.31236243 33.75 19.4375 C32.31650088 18.71075082 30.88290426 17.98419392 29.44921875 17.2578125 C28.71493652 16.88430664 27.9806543 16.51080078 27.22412109 16.12597656 C25.05698397 15.02884852 22.88369373 13.94527738 20.70703125 12.8671875 C13.71227879 9.40163527 6.76251691 5.90723199 0 2 C0 1.34 0 0.68 0 0 Z " fill="#B9E9F5" transform="translate(280,14)"/>
<path d="M0 0 C2.97 0.495 2.97 0.495 6 1 C6 1.66 6 2.32 6 3 C6.58265625 3.04898438 7.1653125 3.09796875 7.765625 3.1484375 C14.57464321 3.7693857 21.26897784 4.80877099 28 6 C28 6.99 28 7.98 28 9 C28.66 9.33 29.32 9.66 30 10 C27.69 10.33 25.38 10.66 23 11 C23 10.34 23 9.68 23 9 C22.31292969 8.86722656 21.62585938 8.73445313 20.91796875 8.59765625 C20.01691406 8.42105469 19.11585938 8.24445313 18.1875 8.0625 C17.29417969 7.88847656 16.40085938 7.71445313 15.48046875 7.53515625 C13 7 13 7 10 6 C10 6.66 10 7.32 10 8 C9.01 8 8.02 8 7 8 C7 7.34 7 6.68 7 6 C6.21625 5.7525 5.4325 5.505 4.625 5.25 C1.67682892 3.84610901 1.0975223 2.99324263 0 0 Z " fill="#DEE2E9" transform="translate(176,68)"/>
<path d="M0 0 C0.33 0 0.66 0 1 0 C1.22262303 6.7281627 0.95021536 12.53991163 -1 19 C-1.33 19 -1.66 19 -2 19 C-2.33 17.35 -2.66 15.7 -3 14 C-3.33 14 -3.66 14 -4 14 C-3.66328485 8.67061191 -3.384568 4.37173367 0 0 Z " fill="#BFC2CA" transform="translate(401,433)"/>
<path d="M0 0 C0.66 0 1.32 0 2 0 C2.3690205 11.52164009 2.3690205 11.52164009 0 17 C-1.546875 15.9140625 -1.546875 15.9140625 -3 14 C-2.890625 10.8984375 -2.890625 10.8984375 -2.25 7.375 C-2.04890625 6.20710938 -1.8478125 5.03921875 -1.640625 3.8359375 C-1 1 -1 1 0 0 Z " fill="#C4C7CF" transform="translate(406,407)"/>
<path d="M0 0 C2.97 0.495 2.97 0.495 6 1 C6.125 6.75 6.125 6.75 5 9 C3.35 9 1.7 9 0 9 C0 6.03 0 3.06 0 0 Z " fill="#B6BCC3" transform="translate(309,227)"/>
<path d="M0 0 C6.88108028 2.62066674 13.46532335 5.60752957 20 9 C19.67 9.99 19.34 10.98 19 12 C16.39459218 10.71078784 13.79065627 9.41874404 11.1875 8.125 C10.44951172 7.76019531 9.71152344 7.39539063 8.95117188 7.01953125 C8.23896484 6.66503906 7.52675781 6.31054688 6.79296875 5.9453125 C6.1383667 5.62062988 5.48376465 5.29594727 4.80932617 4.96142578 C3 4 3 4 0 2 C0 1.34 0 0.68 0 0 Z " fill="#B3E9F4" transform="translate(280,14)"/>
<path d="M0 0 C0.99 0.66 1.98 1.32 3 2 C3.1875 5.625 3.1875 5.625 3 9 C2.67 8.34 2.34 7.68 2 7 C1.34 7 0.68 7 0 7 C-1.38232443 5.37373596 -2.71937515 3.7074998 -4 2 C-2.68 1.34 -1.36 0.68 0 0 Z " fill="#C9D7E0" transform="translate(145,197)"/>
<path d="M0 0 C-0.33 3.3 -0.66 6.6 -1 10 C-1.99 10.33 -2.98 10.66 -4 11 C-3.8864371 9.35333797 -3.75882619 7.70763918 -3.625 6.0625 C-3.55539062 5.14597656 -3.48578125 4.22945313 -3.4140625 3.28515625 C-3.27742188 2.53105469 -3.14078125 1.77695312 -3 1 C-1 0 -1 0 0 0 Z " fill="#BCBEC4" transform="translate(405,420)"/>
<path d="M0 0 C0.93423645 3.01031744 1.04449911 3.86650268 0 7 C2.97 7.495 2.97 7.495 6 8 C5.67 8.66 5.34 9.32 5 10 C2.0625 9.625 2.0625 9.625 -1 9 C-2.60031344 5.79937313 -1.03173691 3.27728194 0 0 Z " fill="#D7DAE1" transform="translate(398,453)"/>
<path d="M0 0 C3.55780196 0.60990891 6.6828589 1.5783681 10 3 C10 3.99 10 4.98 10 6 C6.00452264 5.38531118 3.22493358 3.34540624 0 1 C0 0.67 0 0.34 0 0 Z " fill="#CFF0F6" transform="translate(315,32)"/>
<path d="M0 0 C0.66 0.33 1.32 0.66 2 1 C-0.97 3.97 -3.94 6.94 -7 10 C-7.33 9.34 -7.66 8.68 -8 8 C-3.375 2.25 -3.375 2.25 0 0 Z " fill="#E0E6EA" transform="translate(54,458)"/>
<path d="M0 0 C3.33524284 2.69995849 4.56351308 6.03255995 6 10 C6.1875 12.9375 6.1875 12.9375 6 15 C4.33251253 12.49876879 3.10045639 10.22323643 1.875 7.5 C1.52179688 6.7265625 1.16859375 5.953125 0.8046875 5.15625 C0 3 0 3 0 0 Z " fill="#BFD5E5" transform="translate(393,202)"/>
<path d="M0 0 C3.10753611 1.03584537 4.02036826 1.50394259 6 4 C7.1875 7.1875 7.1875 7.1875 8 10 C4.15654191 8.54213659 2.84920065 6.61034412 1 3 C0.67 2.01 0.34 1.02 0 0 Z " fill="#C3D9E4" transform="translate(133,188)"/>
<path d="M0 0 C0.66 0 1.32 0 2 0 C2 3.63 2 7.26 2 11 C1.67 11 1.34 11 1 11 C0.67 9.02 0.34 7.04 0 5 C-0.66 5.99 -1.32 6.98 -2 8 C-1.125 1.125 -1.125 1.125 0 0 Z " fill="#D3D9E2" transform="translate(406,407)"/>
<path d="M0 0 C0.99 0.33 1.98 0.66 3 1 C4.1875 3.5625 4.1875 3.5625 5 6 C4.01 6.33 3.02 6.66 2 7 C1.34 4.69 0.68 2.38 0 0 Z " fill="#C5DFE9" transform="translate(124,168)"/>
</svg>
