<?xml version="1.0" encoding="UTF-8"?>
<svg version="1.1" xmlns="http://www.w3.org/2000/svg" width="663" height="762">
<path d="M0 0 C3.14227339 0.98052692 5.87767655 0.88549865 9.140625 0.66796875 C9.140625 -0.32203125 9.140625 -1.31203125 9.140625 -2.33203125 C48.78166779 -3.91913798 48.78166779 -3.91913798 65.12890625 4.67236328 C68.31346992 6.24841312 71.61656953 7.28285396 75.015625 8.29296875 C75.63993408 8.48173584 76.26424316 8.67050293 76.9074707 8.86499023 C78.98112712 9.48105954 81.05967184 10.07700863 83.140625 10.66796875 C84.03700684 10.92352539 84.93338867 11.17908203 85.85693359 11.44238281 C88.80316312 12.27684408 91.75223539 13.10014659 94.703125 13.91796875 C95.6317334 14.17658691 96.5603418 14.43520508 97.51708984 14.70166016 C102.38860246 16.02719971 107.12370054 17.08988692 112.140625 17.66796875 C112.470625 16.34796875 112.800625 15.02796875 113.140625 13.66796875 C119.47571562 14.08918488 123.72140287 16.35958884 129.140625 19.54296875 C139.39349721 25.37538916 149.91018733 30.47690086 160.59619141 35.46044922 C162.79401016 36.5034747 164.96107365 37.58463345 167.12109375 38.703125 C176.90903991 43.64598349 186.87909572 46.25531496 197.50439453 48.79638672 C201.60494423 49.77926321 205.69896244 50.78717496 209.79296875 51.796875 C229.20644376 56.57391655 248.65875941 61.17805588 268.140625 65.66796875 C269.50637789 65.98391882 270.87209983 66.30000271 272.23779297 66.61621094 C290.57814641 70.86092388 308.9414224 74.9749909 327.35766602 78.87866211 C334.83199111 80.4698402 342.25719547 82.1678468 349.66325378 84.05769348 C355.63342038 85.56868186 361.63276509 86.93665972 367.640625 88.2890625 C368.65522293 88.51814301 369.66982086 88.74722351 370.71516418 88.98324585 C374.91077801 89.92979933 379.10666262 90.8749813 383.3046875 91.81079102 C429.11570619 102.03798726 429.11570619 102.03798726 438.140625 114.66796875 C445.12837649 126.87573698 442.68722799 141.08470979 439.953125 154.15625 C439.73120987 155.24002426 439.50929474 156.32379852 439.28065491 157.44041443 C437.03739937 168.32517121 434.68201681 179.1858883 432.28344727 190.03735352 C431.57149946 193.26046372 430.86464065 196.48466245 430.15820312 199.70898438 C427.93835137 209.80460447 425.64748717 219.86788883 423.09448242 229.88452148 C422.05787051 233.99621201 421.0732207 238.11776979 420.10546875 242.24609375 C419.9379863 242.96055161 419.77050385 243.67500946 419.59794617 244.41111755 C419.09047519 246.57986716 418.58413275 248.74887732 418.078125 250.91796875 C416.07748174 259.48807316 414.05989988 268.05052346 411.90698242 276.58398438 C410.31953527 282.97220752 408.83110335 289.38445227 407.328125 295.79296875 C406.97274726 297.30566633 406.61735975 298.8183616 406.26196289 300.33105469 C403.94016593 310.22136826 401.64382324 320.11738551 399.36450195 330.01757812 C390.86219717 366.94450918 390.86219717 366.94450918 388.140625 377.66796875 C384.9386417 390.28514549 382.08191701 402.9880045 379.140625 415.66796875 C372.24866736 445.3793256 372.24866736 445.3793256 369.22265625 457.27734375 C367.99613948 462.18341081 366.86687665 467.11195573 365.72631836 472.03857422 C349.87343548 540.50889469 349.87343548 540.50889469 332.140625 553.66796875 C315.85761077 563.09376994 298.59667347 561.73829464 280.98242188 557.09960938 C268.93001643 553.74750021 268.93001643 553.74750021 264.05859375 550.80859375 C259.0647003 547.82986593 253.49719224 546.26902894 247.99075317 544.49282837 C245.98214208 543.84466405 243.97699645 543.18662785 241.97241211 542.52612305 C235.99884044 540.5611129 230.01577062 538.62630847 224.02734375 536.70703125 C212.5138721 532.989857 201.57641483 528.82245207 190.98046875 522.90234375 C188.33841568 521.53544119 188.33841568 521.53544119 186.05859375 521.64453125 C183.12640974 523.20915897 181.51785552 525.45623712 179.453125 528.04296875 C179.01814697 528.58099121 178.58316895 529.11901367 178.13500977 529.67333984 C176.79547232 531.33190734 175.467947 532.99961945 174.140625 534.66796875 C172.6231954 536.54572444 171.10254029 538.4208798 169.578125 540.29296875 C168.85367187 541.185 168.12921875 542.07703125 167.3828125 542.99609375 C164.37795307 546.57679732 161.20404654 549.98732311 157.98828125 553.37890625 C153.74943254 558.63041861 153.83044093 563.563151 153.890625 570.04296875 C153.88289063 570.86796875 153.87515625 571.69296875 153.8671875 572.54296875 C153.88304388 577.53772881 154.01493764 582.06977135 156.140625 586.66796875 C157.91078412 588.15467655 159.7233147 589.22820228 161.74707031 590.34570312 C164.41998073 591.82229256 166.91485095 593.47478153 169.4453125 595.18359375 C170.35796875 595.79460938 171.270625 596.405625 172.2109375 597.03515625 C173.13648438 597.65648437 174.06203125 598.2778125 175.015625 598.91796875 C176.88731056 600.17423596 178.75967205 601.42949687 180.6328125 602.68359375 C181.45120605 603.23305664 182.26959961 603.78251953 183.11279297 604.34863281 C185.09236695 605.6908888 185.09236695 605.6908888 187.140625 606.66796875 C187.140625 607.32796875 187.140625 607.98796875 187.140625 608.66796875 C187.924375 608.85359375 188.708125 609.03921875 189.515625 609.23046875 C193.63625128 610.86451021 196.74759797 613.08187658 200.28515625 615.71875 C203.32115245 617.79120158 206.43944814 619.53891476 209.66235352 621.30004883 C214.06172026 623.72834672 218.37831309 626.2974471 222.703125 628.85546875 C223.66259033 629.42209229 224.62205566 629.98871582 225.6105957 630.57250977 C232.06468489 634.39868969 238.44171361 638.33045927 244.78198242 642.34155273 C249.30949437 645.19059541 253.92598588 647.80494139 258.6484375 650.3203125 C262.90181975 652.62033895 267.01001473 655.156189 271.140625 657.66796875 C273.65937494 659.19227214 276.18072033 660.71222196 278.703125 662.23046875 C279.35200684 662.62194092 280.00088867 663.01341309 280.66943359 663.41674805 C284.07686576 665.46354654 287.50344806 667.42923913 291.015625 669.29296875 C299.9369602 674.24926608 307.56765786 680.32672103 310.69677734 690.47094727 C312.46595845 699.22829641 310.81874865 708.30828935 309.015625 716.91796875 C308.79116699 718.00335937 308.56670898 719.08875 308.33544922 720.20703125 C305.12399647 735.0746228 301.02420945 748.55325992 288.85241699 758.57258606 C285.97223134 760.41562863 283.31675297 760.3526736 279.953125 760.40234375 C279.26696106 760.41481644 278.58079712 760.42728912 277.87384033 760.44013977 C275.6281242 760.46586885 273.38627058 760.44673244 271.140625 760.41796875 C270.36231323 760.41376923 269.58400146 760.4095697 268.78210449 760.40524292 C254.00150979 760.27722588 240.51049539 757.65396529 226.25390625 753.75488281 C219.19753284 751.85664441 212.05535018 750.299753 204.93045044 748.68313599 C200.76771261 747.73634759 196.60869898 746.77347826 192.44921875 745.8125 C186.73370686 744.49462902 181.01749912 743.17981648 175.30078125 741.8671875 C174.1293457 741.597854 172.95791016 741.32852051 171.75097656 741.05102539 C169.6528966 740.56875279 167.55461164 740.08737051 165.45605469 739.60717773 C160.87365077 738.55338312 156.30399482 737.46449226 151.74609375 736.30908203 C144.5053741 734.49449433 137.23701074 732.80427501 129.96484375 731.12109375 C128.50924724 730.7834909 127.05366594 730.4458225 125.59809875 730.10809326 C122.5516361 729.40147851 119.50500718 728.69558651 116.45825195 727.99023438 C112.65554543 727.10982449 108.85323135 726.22773376 105.05103683 725.34511566 C88.39982675 721.48057344 71.74138649 717.65171816 55.06144714 713.91290283 C47.80782175 712.28438049 40.58681402 710.57804595 33.3828125 708.7421875 C13.77304752 703.7499935 -5.94766853 699.24547551 -25.70117188 694.86450195 C-33.86813293 693.04861583 -42.00595205 691.16243507 -50.11538696 689.10427856 C-56.89696477 687.38927326 -63.71823917 685.8697202 -70.546875 684.35546875 C-81.91869087 681.81760868 -93.24903265 679.14044248 -104.56640625 676.3684082 C-113.74362817 674.13810962 -122.95214903 672.0815601 -132.17764282 670.06213379 C-184.19016507 658.66473534 -184.19016507 658.66473534 -195.859375 640.98046875 C-209.76286487 618.42071956 -196.95679699 586.50188072 -191.37615967 562.86151123 C-190.5640019 559.41422907 -189.76028735 555.96499038 -188.95703125 552.515625 C-188.07320869 548.72160842 -187.18880111 544.92774501 -186.30053711 541.13476562 C-184.55844521 533.69461283 -182.85156114 526.24743283 -181.171875 518.79296875 C-179.37924555 510.85967538 -177.47774685 502.9650798 -175.47216797 495.08251953 C-171.30038136 478.64468304 -167.23909726 462.18105853 -163.27636719 445.69165039 C-161.8100067 439.59330123 -160.33002074 433.49986921 -158.796875 427.41796875 C-154.16092449 408.97197158 -149.86076715 390.44902826 -145.66308594 371.89916992 C-144.29180304 365.85012392 -142.9145266 359.80590698 -141.390625 353.79296875 C-139.51665684 346.39684867 -137.83219916 338.95776752 -136.12896729 331.52090454 C-133.2972082 319.16220762 -130.44869622 306.80814282 -127.484375 294.48046875 C-127.25838623 293.54050049 -127.03239746 292.60053223 -126.79956055 291.63208008 C-125.67897183 286.99468311 -124.53301697 282.36451139 -123.3671875 277.73828125 C-121.86701317 271.75344099 -120.47944084 265.74620895 -119.109375 259.73046875 C-116.08344859 246.53225873 -112.90996767 233.37182557 -109.71630859 220.21337891 C-108.61255227 215.64678364 -107.52523151 211.07635063 -106.43774414 206.50585938 C-103.4051584 193.7838867 -100.19083738 181.15721698 -96.49438477 168.61083984 C-90.00561036 146.57585696 -84.22557873 124.39649061 -78.85656738 102.06686401 C-75.77729662 89.27090495 -72.51833891 76.53240738 -69.10058594 63.82275391 C-68.72972943 62.44305758 -68.35896027 61.06333777 -67.98828125 59.68359375 C-67.80776215 59.01198212 -67.62724304 58.34037048 -67.44125366 57.64840698 C-66.22484738 53.09917298 -65.07252012 48.53799112 -63.94921875 43.96484375 C-63.49699951 42.14460693 -63.49699951 42.14460693 -63.03564453 40.28759766 C-62.48463782 38.05834101 -61.94413642 35.82644328 -61.41748047 33.59130859 C-57.86066286 19.31129361 -51.9799724 8.88758291 -39.296875 1.23046875 C-27.7450427 -5.1493437 -12.20663808 -4.19357082 0 0 Z " fill="#EFEEF2" transform="translate(210.859375,2.33203125)"/>
<path d="M0 0 C0.71095825 0.18226639 1.4219165 0.36453278 2.15441895 0.55232239 C3.69167027 0.94690613 5.22801917 1.34501868 6.7635498 1.74624634 C10.84293186 2.81127128 14.92922278 3.84901149 19.015625 4.88671875 C20.26155426 5.20379036 20.26155426 5.20379036 21.53265381 5.52726746 C29.54800038 7.55589282 37.60034598 9.39771472 45.671875 11.1875 C54.44055111 13.13683381 63.17471796 15.1468265 71.87890625 17.3671875 C89.34637642 21.77299526 106.99094307 25.52246555 124.56689453 29.46890259 C135.49008368 31.92179693 146.41049841 34.38410535 157.31396484 36.92358398 C163.69283227 38.40702984 170.07702858 39.8637725 176.46624756 41.30194092 C180.74855803 42.26657024 185.02969075 43.23637552 189.31079102 44.20635986 C191.43672979 44.68668089 193.56318152 45.16473824 195.69018555 45.64031982 C240.90360159 55.75431847 240.90360159 55.75431847 249.921875 68.375 C256.90962649 80.58276823 254.46847799 94.79174104 251.734375 107.86328125 C251.51245987 108.94705551 251.29054474 110.03082977 251.06190491 111.14744568 C248.81864937 122.03220246 246.46326681 132.89291955 244.06469727 143.74438477 C243.35274946 146.96749497 242.64589065 150.1916937 241.93945312 153.41601562 C239.71960137 163.51163572 237.42873717 173.57492008 234.87573242 183.59155273 C233.83912051 187.70324326 232.8544707 191.82480104 231.88671875 195.953125 C231.7192363 196.66758286 231.55175385 197.38204071 231.37919617 198.1181488 C230.87172519 200.28689841 230.36538275 202.45590857 229.859375 204.625 C227.85873174 213.19510441 225.84114988 221.75755471 223.68823242 230.29101562 C222.10078527 236.67923877 220.61235335 243.09148352 219.109375 249.5 C218.75399726 251.01269758 218.39860975 252.52539285 218.04321289 254.03808594 C215.72141593 263.92839951 213.42507324 273.82441676 211.14575195 283.72460938 C202.64344717 320.65154043 202.64344717 320.65154043 199.921875 331.375 C196.7198917 343.99217674 193.86316701 356.69503575 190.921875 369.375 C184.02991736 399.08635685 184.02991736 399.08635685 181.00390625 410.984375 C179.77738948 415.89044206 178.64812665 420.81898698 177.50756836 425.74560547 C161.65468548 494.21592594 161.65468548 494.21592594 143.921875 507.375 C127.63886077 516.80080119 110.37792347 515.44532589 92.76367188 510.80664062 C80.71126643 507.45453146 80.71126643 507.45453146 75.83984375 504.515625 C70.8459503 501.53689718 65.27844224 499.97606019 59.77200317 498.19985962 C57.76339208 497.5516953 55.75824645 496.8936591 53.75366211 496.2331543 C47.78009044 494.26814415 41.79702062 492.33333972 35.80859375 490.4140625 C24.2951221 486.69688825 13.35766483 482.52948332 2.76171875 476.609375 C0.11966568 475.24247244 0.11966568 475.24247244 -2.16015625 475.3515625 C-5.09234026 476.91619022 -6.70089448 479.16326837 -8.765625 481.75 C-9.41809204 482.55703369 -9.41809204 482.55703369 -10.08374023 483.38037109 C-11.42327768 485.03893859 -12.750803 486.7066507 -14.078125 488.375 C-18.6264972 494.00342045 -23.20102814 499.60411411 -27.953125 505.0625 C-28.67242187 505.89136719 -29.39171875 506.72023438 -30.1328125 507.57421875 C-32.078125 509.375 -32.078125 509.375 -35.078125 509.375 C-35.078125 464.495 -35.078125 419.615 -35.078125 373.375 C19.701875 373.375 74.481875 373.375 130.921875 373.375 C130.921875 354.235 130.921875 335.095 130.921875 315.375 C120.031875 315.375 109.141875 315.375 97.921875 315.375 C99.3569307 311.78736074 100.84176174 308.34851888 102.49609375 304.8671875 C126.50047839 253.93917531 133.99814985 203.18711587 116.921875 148.375 C116.02475422 146.41768687 115.03904893 144.54794887 114.01953125 142.65234375 C112.60358118 139.71462529 111.55992196 136.70328957 110.484375 133.625 C107.26414212 124.43555496 103.96102934 115.57721746 98.76171875 107.30859375 C97.31774833 105.00621204 95.92447922 102.69166039 94.55078125 100.34765625 C85.68348417 85.32713722 75.54301275 71.71514405 63.48046875 59.109375 C60.921875 56.375 60.921875 56.375 58.8046875 53.71484375 C57.10027114 51.59669976 55.43338203 49.93002427 53.359375 48.1875 C50.05157072 45.36883498 46.85308079 42.46086253 43.671875 39.5 C34.49933278 31.13941172 24.1963484 23.09234231 13.38671875 16.9296875 C10.921875 15.375 10.921875 15.375 8.984375 13.4140625 C6.51764304 10.97536158 3.93540865 9.46018035 0.921875 7.75 C-0.109375 7.15960938 -1.140625 6.56921875 -2.203125 5.9609375 C-4.94675509 4.39289055 -4.94675509 4.39289055 -7.390625 3.3515625 C-9.078125 2.375 -9.078125 2.375 -10.078125 -0.625 C-6.28305313 -1.89002396 -3.72894488 -0.99543159 0 0 Z " fill="#EEF2F7" transform="translate(399.078125,48.625)"/>
<path d="M0 0 C19.14 0 38.28 0 58 0 C58 55.44 58 110.88 58 168 C112.78 168 167.56 168 224 168 C224 186.81 224 205.62 224 225 C169.22 225 114.44 225 58 225 C58 269.88 58 314.76 58 361 C58.66 361.33 59.32 361.66 60 362 C59.83773926 362.57129639 59.67547852 363.14259277 59.50830078 363.73120117 C58.99948146 366.00231448 58.87077446 367.97771313 58.8671875 370.30078125 C58.86525391 371.51991211 58.86525391 371.51991211 58.86328125 372.76367188 C58.86714844 373.60478516 58.87101563 374.44589844 58.875 375.3125 C58.87113281 376.14201172 58.86726562 376.97152344 58.86328125 377.82617188 C58.87090633 382.65665906 59.19013551 387.23722548 60 392 C42.10897183 400.94551408 20.00277758 393 0 393 C0 337.56 0 282.12 0 225 C-54.78 225 -109.56 225 -166 225 C-166 206.19 -166 187.38 -166 168 C-111.22 168 -56.44 168 0 168 C0 112.56 0 57.12 0 0 Z " fill="#5271FE" transform="translate(306,197)"/>
<path d="M0 0 C6.33509062 0.42121613 10.58077787 2.69162009 16 5.875 C28.56079865 13.02030104 41.58397003 19.09472349 54.68359375 25.17578125 C55.37928467 25.49901367 56.07497559 25.82224609 56.79174805 26.15527344 C58.60385243 26.99479218 60.41898611 27.82776381 62.234375 28.66015625 C65 30 65 30 68 32 C67.01 32.495 67.01 32.495 66 33 C67.47614201 35.95228402 69.66851329 36.42229099 72.625 37.8125 C77.48813481 40.18603477 81.81019072 42.57197422 86 46 C86 46.66 86 47.32 86 48 C86.721875 48.2475 87.44375 48.495 88.1875 48.75 C91.26894735 50.11953215 93.4060245 51.85997022 96 54 C96.7321875 54.42539063 97.464375 54.85078125 98.21875 55.2890625 C101.69392437 57.42688044 104.81448981 59.89521783 108 62.4375 C108.60328125 62.91509766 109.2065625 63.39269531 109.828125 63.88476562 C111.00634766 64.81837901 112.18222032 65.75496748 113.35546875 66.69482422 C114.86533614 67.89312456 116.40034353 69.05956844 117.9375 70.22265625 C118.618125 70.80917969 119.29875 71.39570312 120 72 C120 72.66 120 73.32 120 74 C120.53625 74.226875 121.0725 74.45375 121.625 74.6875 C124.82460161 76.45570089 127.29037223 78.53670203 130 81 C130 81.66 130 82.32 130 83 C130.55558594 83.22171875 131.11117187 83.4434375 131.68359375 83.671875 C147.83723965 92.93366186 162.47259687 118.33517191 171.4140625 134.203125 C172.91587825 136.85164735 174.50717631 139.42133687 176.125 142 C181.33735849 150.70105345 184.56229984 160.28306934 187.76953125 169.86157227 C188.96444308 173.36291287 190.27423744 176.61366349 192.01953125 179.87890625 C194.38167498 184.46407909 195.50882654 189.17453446 196.625 194.1875 C196.83809814 195.12311768 197.05119629 196.05873535 197.27075195 197.02270508 C198.83094764 203.9914183 200.22924819 210.89440238 201 218 C201.14912842 219.31484375 201.14912842 219.31484375 201.30126953 220.65625 C204.87034186 253.33639961 201.046242 285.14262237 188.3125 315.5 C187.87550781 316.54502686 187.43851563 317.59005371 186.98828125 318.66674805 C177.42262698 341.36605952 177.42262698 341.36605952 173 348 C183.89 348 194.78 348 206 348 C206 348.33 206 348.66 206 349 C151.22 349 96.44 349 40 349 C40 348.67 40 348.34 40 348 C81.25 348 122.5 348 165 348 C165.62792946 341.09277599 166.18055638 334.37462692 166.2734375 327.46875 C166.2857843 326.60198639 166.2981311 325.73522278 166.31085205 324.8421936 C166.34284238 322.0614262 166.36186804 319.28091845 166.375 316.5 C166.37989441 315.55122986 166.38478882 314.60245972 166.38983154 313.62493896 C166.42692112 296.20715742 165.72945925 278.32679056 159 262 C158.58773313 260.60893179 158.19252337 259.21272033 157.8125 257.8125 C151.91028851 238.02100474 142.60337584 220.0160293 131 203 C130.5963623 202.40558105 130.19272461 201.81116211 129.77685547 201.19873047 C124.99300062 194.20147814 120.0228748 187.65125818 114.2265625 181.4453125 C111.79960966 178.77992219 109.55955818 176.00571678 107.3125 173.1875 C104.13710094 169.24332012 100.9458328 166.1364312 97 163 C97 162.34 97 161.68 97 161 C96.1646875 160.6596875 96.1646875 160.6596875 95.3125 160.3125 C92.34162851 158.62632969 90.39177042 156.44612884 88 154 C83.45508132 149.72875384 78.91078015 146.10934343 73.46875 143.04296875 C72.9840625 142.69878906 72.499375 142.35460937 72 142 C72 141.34 72 140.68 72 140 C71.21625 139.690625 70.4325 139.38125 69.625 139.0625 C67 138 67 138 65 137 C65 136.34 65 135.68 65 135 C64.2265625 134.62875 64.2265625 134.62875 63.4375 134.25 C60.22815849 132.60418384 57.12414336 130.8023904 54 129 C54 128.34 54 127.68 54 127 C53.27554688 126.73960937 52.55109375 126.47921875 51.8046875 126.2109375 C48.91260316 124.96226599 46.66312874 123.48196959 44.125 121.625 C39.59859457 118.38610544 35.04919502 115.60383854 30.12109375 113.01171875 C27.36562656 111.5218106 25.26168818 110.35227255 23.375 107.8125 C22.08415866 105.73143457 22.08415866 105.73143457 19.3125 105.25 C18.549375 105.1675 17.78625 105.085 17 105 C16.67 104.01 16.34 103.02 16 102 C14.23385489 100.32451159 14.23385489 100.32451159 12.125 98.6875 C8.5981273 95.69121877 6.91663355 93.24992656 5 89 C3.85498135 87.33903319 2.68584098 85.6945722 1.5 84.0625 C-1.32122915 80.09736912 -3.31367914 76.55306633 -5 72 C-5.50789063 70.84628906 -6.01578125 69.69257812 -6.5390625 68.50390625 C-8.49137322 63.23843767 -8.61467308 58.13473482 -8.625 52.5625 C-8.62951172 51.46244629 -8.63402344 50.36239258 -8.63867188 49.22900391 C-8.34703512 34.17013164 -4.57591906 19.56181631 -1 5 C-1.66 4.67 -2.32 4.34 -3 4 C-2.34 4 -1.68 4 -1 4 C-0.67 2.68 -0.34 1.36 0 0 Z " fill="#AADBEC" transform="translate(324,16)"/>
<path d="M0 0 C1.12607666 0.00966797 1.12607666 0.00966797 2.27490234 0.01953125 C9.80193215 0.26626589 15.22442428 2.22960881 20.80078125 7.40234375 C26.63568386 13.69630702 29.30578282 19.31605528 29.1875 27.875 C29.18065186 28.63014893 29.17380371 29.38529785 29.16674805 30.16333008 C29.00460784 35.77143814 28.18576357 39.94561573 24.75 44.5 C24.09 45.53125 23.43 46.5625 22.75 47.625 C17.9549537 52.93015761 11.17478322 55.96759158 4.20703125 57.05078125 C-5.6690887 57.42773239 -12.77974455 54.86577231 -20.125 48.3125 C-26.56114511 41.22208954 -28.00738035 33.28983231 -27.69140625 23.90234375 C-26.62142506 15.65496658 -22.68177234 10.2140274 -16.41015625 4.97265625 C-10.99934742 1.28391316 -6.53122427 -0.05837966 0 0 Z " fill="#F2F6FA" transform="translate(80.25,543.5)"/>
<path d="M0 0 C4.51819775 0.53155268 7.35389406 2.48811376 11 5 C12.70170151 6.14144796 14.40496892 7.2805632 16.109375 8.41796875 C17.02847656 9.03220703 17.94757813 9.64644531 18.89453125 10.27929688 C19.83683594 10.90900391 20.77914063 11.53871094 21.75 12.1875 C22.70777344 12.82880859 23.66554688 13.47011719 24.65234375 14.13085938 C25.56628906 14.74123047 26.48023438 15.35160156 27.421875 15.98046875 C28.25299805 16.53629639 29.08412109 17.09212402 29.94042969 17.66479492 C31.94681694 19.01978165 31.94681694 19.01978165 34 20 C34 20.66 34 21.32 34 22 C34.78375 22.185625 35.5675 22.37125 36.375 22.5625 C40.49562628 24.19654146 43.60697297 26.41390783 47.14453125 29.05078125 C50.18052745 31.12323283 53.29882314 32.87094601 56.52172852 34.63208008 C60.92109526 37.06037797 65.23768809 39.62947835 69.5625 42.1875 C70.52196533 42.75412354 71.48143066 43.32074707 72.4699707 43.90454102 C78.92405989 47.73072094 85.30108861 51.66249052 91.64135742 55.67358398 C96.16886937 58.52262666 100.78536088 61.13697264 105.5078125 63.65234375 C109.76119475 65.9523702 113.86938973 68.48822025 118 71 C120.51874994 72.52430339 123.04009533 74.04425321 125.5625 75.5625 C126.21138184 75.95397217 126.86026367 76.34544434 127.52880859 76.7487793 C130.93624076 78.79557779 134.36282306 80.76127038 137.875 82.625 C146.7963352 87.58129733 154.42703286 93.65875228 157.55615234 103.80297852 C159.32533345 112.56032766 157.67812365 121.6403206 155.875 130.25 C155.53831299 131.87808594 155.53831299 131.87808594 155.19482422 133.5390625 C152.46045322 146.19797866 149.26663686 158.46019697 140 168 C139.48308594 168.54398438 138.96617187 169.08796875 138.43359375 169.6484375 C135.81017127 172.12801697 134.24910807 172.97693444 130.625 173.3125 C129.325625 173.1578125 129.325625 173.1578125 128 173 C130.17510344 168.9932305 132.74788628 166.17279388 136 163 C136.721875 162.071875 137.44375 161.14375 138.1875 160.1875 C138.785625 159.465625 139.38375 158.74375 140 158 C140.66 158 141.32 158 142 158 C141.938125 157.319375 141.87625 156.63875 141.8125 155.9375 C142.05372352 152.15833152 143.45508155 149.44635655 145 146 C145.68939809 143.67328146 146.35466922 141.33932406 147 139 C147.75768438 136.82901834 148.52566641 134.6630767 149.31640625 132.50390625 C152.13089993 122.19481798 153.8610355 105.95407124 148.8125 96.25 C144.91192023 91.04313707 139.43655733 88.02897054 133.79394531 84.9765625 C131.9872813 83.99307638 130.20718191 82.97266916 128.4296875 81.9375 C123.18853133 78.89004855 117.90234621 75.93415063 112.5625 73.0625 C107.41022001 70.2764523 102.39603376 67.28292524 97.38891602 64.24633789 C93.97838144 62.17849725 90.5445362 60.16690926 87.07617188 58.19677734 C82.22379727 55.39970064 77.42952049 52.50317972 72.625 49.625 C71.53960937 48.97789062 70.45421875 48.33078125 69.3359375 47.6640625 C63.76617598 44.327587 58.29771863 40.90335415 52.92138672 37.26416016 C50.44511001 35.63491482 47.88116451 34.23728932 45.25 32.875 C41.49007899 30.86935968 38.25190497 28.77368365 35 26 C33.3403953 24.98832316 31.67257442 23.99008716 30 23 C28.12120343 21.81851589 26.24626248 20.6308809 24.375 19.4375 C22.96347656 18.53837891 22.96347656 18.53837891 21.5234375 17.62109375 C19.67118376 16.43117842 17.83178521 15.22119014 16 14 C16 13.34 16 12.68 16 12 C14.8553125 11.566875 14.8553125 11.566875 13.6875 11.125 C11 10 11 10 8 8 C8 7.34 8 6.68 8 6 C6.68 5.67 5.36 5.34 4 5 C4 4.34 4 3.68 4 3 C2.68 2.67 1.36 2.34 0 2 C0 1.34 0 0.68 0 0 Z " fill="#EDDEE9" transform="translate(364,589)"/>
<path d="M0 0 C1.37577361 0.11617644 2.75061045 0.24345777 4.125 0.375 C4.89070312 0.44460937 5.65640625 0.51421875 6.4453125 0.5859375 C9 1 9 1 11.71875 1.9375 C15.88871752 3.2877752 20.05240991 3.94937986 24.375 4.625 C25.20644531 4.7590625 26.03789062 4.893125 26.89453125 5.03125 C28.92897403 5.3586316 30.96439316 5.67993603 33 6 C33.66 4.35 34.32 2.7 35 1 C41.39796073 0.71893352 46.77738398 1.70477814 52.9375 3.375 C54.63381139 3.82146604 56.33042479 4.26678627 58.02734375 4.7109375 C58.85508301 4.92903076 59.68282227 5.14712402 60.53564453 5.37182617 C64.33712588 6.34083861 68.16665341 7.16824045 72 8 C74.08402815 8.47613562 76.16743148 8.95502012 78.25 9.4375 C79.34183594 9.69015625 80.43367188 9.9428125 81.55859375 10.203125 C82.69425781 10.46609375 83.82992187 10.7290625 85 11 C87.43745689 11.56268679 89.8749553 12.12519372 92.3125 12.6875 C94.20833333 13.125 96.10416667 13.5625 98 14 C98 16.83967231 97.59732819 19.23735711 97 22 C95.515 22.495 95.515 22.495 94 23 C94 23.99 94 24.98 94 26 C92.35 25.67 90.7 25.34 89 25 C88.505 23.515 88.505 23.515 88 22 C87.15179688 21.87753906 86.30359375 21.75507812 85.4296875 21.62890625 C81.87964842 20.97793097 78.56474576 20.02558284 75.125 18.9375 C73.97257812 18.57527344 72.82015625 18.21304688 71.6328125 17.83984375 C70.76398438 17.56269531 69.89515625 17.28554687 69 17 C68.505 18.485 68.505 18.485 68 20 C67.01 18.515 67.01 18.515 66 17 C64.02474227 16.16373689 64.02474227 16.16373689 61.75 15.75 C60.62851562 15.49476562 60.62851562 15.49476562 59.484375 15.234375 C56.90979683 14.88002921 56.90979683 14.88002921 54.03515625 15.52734375 C50.74970518 16.0389777 48.86094057 15.71722908 45.6875 14.8125 C41.38723123 13.63872937 37.09114245 12.54433561 32.74511719 11.55834961 C24.69755156 9.73009393 16.8485454 7.5661331 9 5 C9 4.34 9 3.68 9 3 C7.68 3 6.36 3 5 3 C4.67 3.66 4.34 4.32 4 5 C2.68 3.35 1.36 1.7 0 0 Z " fill="#EEE2C4" transform="translate(214,87)"/>
<path d="M0 0 C1.12607666 0.00966797 1.12607666 0.00966797 2.27490234 0.01953125 C9.80193215 0.26626589 15.22442428 2.22960881 20.80078125 7.40234375 C26.63568386 13.69630702 29.30578282 19.31605528 29.1875 27.875 C29.18065186 28.63014893 29.17380371 29.38529785 29.16674805 30.16333008 C29.00460784 35.77143814 28.18576357 39.94561573 24.75 44.5 C24.09 45.53125 23.43 46.5625 22.75 47.625 C17.9549537 52.93015761 11.17478322 55.96759158 4.20703125 57.05078125 C-5.6690887 57.42773239 -12.77974455 54.86577231 -20.125 48.3125 C-26.56114511 41.22208954 -28.00738035 33.28983231 -27.69140625 23.90234375 C-26.62142506 15.65496658 -22.68177234 10.2140274 -16.41015625 4.97265625 C-10.99934742 1.28391316 -6.53122427 -0.05837966 0 0 Z M-17.51953125 11.56640625 C-22.94958001 17.63384222 -23.91918774 23.22207383 -23.62890625 31.3125 C-22.85946482 37.78532684 -20.71990725 42.48128145 -15.875 46.875 C-14.6851084 47.77491801 -13.4777812 48.65250501 -12.25 49.5 C-11.38375 50.11875 -10.5175 50.7375 -9.625 51.375 C-3.04527392 53.56824203 3.92344919 53.28772727 10.5625 51.4375 C18.06228651 46.87880624 22.51362166 42.77775428 25.12109375 34.1953125 C26.78536879 27.06270517 25.68444895 22.193824 22.16796875 15.76171875 C18.91697663 10.57625197 14.4960204 6.69256041 8.75 4.5 C-1.65924495 2.18157726 -9.81397284 4.16845497 -17.51953125 11.56640625 Z " fill="#8E9FA4" transform="translate(80.25,543.5)"/>
<path d="M0 0 C0.66 0 1.32 0 2 0 C5.32085455 29.70818534 -0.19321447 60.09749989 -11.6875 87.5 C-12.12449219 88.54502686 -12.56148437 89.59005371 -13.01171875 90.66674805 C-22.57737302 113.36605952 -22.57737302 113.36605952 -27 120 C-16.11 120 -5.22 120 6 120 C6 120.33 6 120.66 6 121 C-48.78 121 -103.56 121 -160 121 C-160 120.67 -160 120.34 -160 120 C-116.77 120 -73.54 120 -29 120 C-28.67 118.35 -28.34 116.7 -28 115 C-27.67 114.34 -27.34 113.68 -27 113 C-26.34 113 -25.68 113 -25 113 C-24.8453125 111.453125 -24.8453125 111.453125 -24.6875 109.875 C-23.98529332 105.91710782 -22.92374556 103.50396512 -21 100 C-20.13898015 98.31598641 -19.28534382 96.6281856 -18.4375 94.9375 C-17.81681641 93.71353516 -17.81681641 93.71353516 -17.18359375 92.46484375 C-15.54238093 89.04700452 -14.19854192 85.59562575 -13 82 C-12.67 81.67 -12.34 81.34 -12 81 C-12 80.01 -12 79.02 -12 78 C-11.56853798 76.47262091 -11.0864029 74.9592675 -10.57421875 73.45703125 C-10.27338379 72.55557373 -9.97254883 71.65411621 -9.66259766 70.7253418 C-9.34081543 69.764104 -9.0190332 68.80286621 -8.6875 67.8125 C-4.71071536 55.63820209 -2.27537018 43.75370179 -1 31 C-0.80664062 30.30390625 -0.61328125 29.6078125 -0.4140625 28.890625 C0.2239887 26.92446819 0.2239887 26.92446819 -1 25 C-1.09629649 23.28337877 -1.13075026 21.56306882 -1.1328125 19.84375 C-1.13410156 18.82152344 -1.13539063 17.79929687 -1.13671875 16.74609375 C-1.13285156 15.67488281 -1.12898437 14.60367187 -1.125 13.5 C-1.12886719 12.42878906 -1.13273438 11.35757813 -1.13671875 10.25390625 C-1.13478516 8.72056641 -1.13478516 8.72056641 -1.1328125 7.15625 C-1.13168457 6.21587891 -1.13055664 5.27550781 -1.12939453 4.30664062 C-1 2 -1 2 0 0 Z " fill="#B8C7E2" transform="translate(524,244)"/>
<path d="M0 0 C4.875 1.875 4.875 1.875 6 3 C6.23427778 5.01594582 6.41336124 7.038474 6.5625 9.0625 C6.64628906 10.16722656 6.73007813 11.27195312 6.81640625 12.41015625 C6.87699219 13.26480469 6.93757813 14.11945312 7 15 C7.43570313 14.278125 7.87140625 13.55625 8.3203125 12.8125 C9.21363281 11.4203125 9.21363281 11.4203125 10.125 10 C10.99511719 8.6078125 10.99511719 8.6078125 11.8828125 7.1875 C14 5 14 5 17.2421875 4.6875 C18.15226562 4.790625 19.06234375 4.89375 20 5 C18.125 9.75 18.125 9.75 17 12 C16.95977609 14.3329866 16.95679753 16.66706666 17 19 C17.39832031 18.30132813 17.79664062 17.60265625 18.20703125 16.8828125 C19.00173828 15.51769531 19.00173828 15.51769531 19.8125 14.125 C20.33457031 13.22007812 20.85664062 12.31515625 21.39453125 11.3828125 C23 9 23 9 26 7 C28.6875 7.375 28.6875 7.375 31 8 C28.04702061 13.68962329 24.9665039 19.2695818 21.4375 24.625 C20.89996094 25.44226563 20.36242187 26.25953125 19.80859375 27.1015625 C17.58145044 29.43934144 16.19993311 29.86515679 13 30 C10.64046906 27.64046906 10.50858587 26.22104383 10 23 C9.608125 23.66 9.21625 24.32 8.8125 25 C7 27 7 27 4.4375 27.4375 C3.633125 27.293125 2.82875 27.14875 2 27 C-0.26598448 23.60102327 -0.23742654 22.43680827 -0.1953125 18.45703125 C-0.18886719 17.38388672 -0.18242188 16.31074219 -0.17578125 15.20507812 C-0.15064453 13.52575195 -0.15064453 13.52575195 -0.125 11.8125 C-0.11597656 10.68134766 -0.10695313 9.55019531 -0.09765625 8.38476562 C-0.07406862 5.58963172 -0.041153 2.79492155 0 0 Z " fill="#96A0B6" transform="translate(90,619)"/>
<path d="M0 0 C0.99 0.33 1.98 0.66 3 1 C3.33036951 8.83811189 2.47582661 15.75795906 0.59375 23.35546875 C0.22751526 24.89694328 0.22751526 24.89694328 -0.14611816 26.46955872 C-0.91920315 29.71176957 -1.70926839 32.94955297 -2.5 36.1875 C-3.03108182 38.40142101 -3.56104037 40.61561179 -4.08984375 42.83007812 C-5.38027008 48.22323654 -6.68461641 53.61287746 -8 59 C-8.66 59 -9.32 59 -10 59 C-10 60.32 -10 61.64 -10 63 C-19.00726401 61.36231563 -27.42639358 58.13020303 -36 55 C-36 54.34 -36 53.68 -36 53 C-35.41508789 52.94465088 -34.83017578 52.88930176 -34.22753906 52.83227539 C-31.56804892 52.57882735 -28.90903168 52.32071175 -26.25 52.0625 C-24.86941406 51.93198242 -24.86941406 51.93198242 -23.4609375 51.79882812 C-22.12675781 51.66831055 -22.12675781 51.66831055 -20.765625 51.53515625 C-19.94868164 51.456604 -19.13173828 51.37805176 -18.29003906 51.29711914 C-16.12879099 51.01670988 -14.09982687 50.57555495 -12 50 C-11.87882812 49.34773437 -11.75765625 48.69546875 -11.6328125 48.0234375 C-10.21612495 40.63486703 -10.21612495 40.63486703 -9 37.0625 C-7.81451104 33.43194006 -7.21584247 29.82495446 -6.56640625 26.06640625 C-5.76178657 21.71036176 -4.74498437 17.41185304 -3.7265625 13.1015625 C-3.07581798 10.32365311 -2.46854464 7.54054568 -1.875 4.75 C-1 1 -1 1 0 0 Z " fill="#BFB9C2" transform="translate(487,489)"/>
<path d="M0 0 C1.65 0 3.3 0 5 0 C6.65 4.29 8.3 8.58 10 13 C10.53625 11.700625 11.0725 10.40125 11.625 9.0625 C12.5390625 6.84765625 12.5390625 6.84765625 14 5 C17.1484375 4.24609375 17.1484375 4.24609375 20 4 C19.40336519 6.52282636 18.79794859 9.0430122 18.1875 11.5625 C18.02185547 12.26697266 17.85621094 12.97144531 17.68554688 13.69726562 C16.54141122 18.38174557 15.33900228 22.76362525 13 27 C10.3125 27.9375 10.3125 27.9375 8 28 C7.16080602 25.73117913 6.32848276 23.46022973 5.5 21.1875 C5.26152344 20.54490234 5.02304687 19.90230469 4.77734375 19.24023438 C3.72931254 16.35066261 3 14.09923939 3 11 C2.34 11 1.68 11 1 11 C0.9175 12.216875 0.835 13.43375 0.75 14.6875 C0.23298737 18.78719167 -0.87988425 21.14732274 -4 24 C-5.32 24 -6.64 24 -8 24 C-7.37987481 21.26964299 -6.75409113 18.54079236 -6.125 15.8125 C-5.95097656 15.04357422 -5.77695312 14.27464844 -5.59765625 13.48242188 C-3.21901187 3.21901187 -3.21901187 3.21901187 0 0 Z " fill="#99A1B6" transform="translate(49,609)"/>
<path d="M0 0 C0.66 0.33 1.32 0.66 2 1 C2.59765625 3.73046875 2.59765625 3.73046875 3.0625 7.1875 C3.21847656 8.31542969 3.37445312 9.44335938 3.53515625 10.60546875 C3.68855469 11.72566406 3.84195313 12.84585938 4 14 C4.2165625 14.93714844 4.433125 15.87429688 4.65625 16.83984375 C5.13369634 21.22909478 4.33791127 25.07797557 3.4375 29.375 C3.25550049 30.25260986 3.07350098 31.13021973 2.88598633 32.03442383 C0.24411852 44.12482841 -3.17423554 55.91406561 -12 65 C-12.51691406 65.54398438 -13.03382813 66.08796875 -13.56640625 66.6484375 C-16.18982873 69.12801697 -17.75089193 69.97693444 -21.375 70.3125 C-22.24125 70.209375 -23.1075 70.10625 -24 70 C-21.82489656 65.9932305 -19.25211372 63.17279388 -16 60 C-14.9171875 58.6078125 -14.9171875 58.6078125 -13.8125 57.1875 C-13.214375 56.465625 -12.61625 55.74375 -12 55 C-11.34 55 -10.68 55 -10 55 C-10.061875 54.319375 -10.12375 53.63875 -10.1875 52.9375 C-9.94627648 49.15833152 -8.54491845 46.44635655 -7 43 C-6.31060191 40.67328146 -5.64533078 38.33932406 -5 36 C-4.24231562 33.82901834 -3.47433359 31.6630767 -2.68359375 29.50390625 C-0.86793818 22.85341928 -0.75850982 15.85171774 -0.4375 9 C-0.39431641 8.12988281 -0.35113281 7.25976562 -0.30664062 6.36328125 C-0.20175782 4.24231781 -0.10049925 2.12117567 0 0 Z " fill="#D8D4DC" transform="translate(516,692)"/>
<path d="M0 0 C2.78416841 0.5715148 5.41559273 1.42879649 8.07421875 2.42578125 C7.38671875 4.36328125 7.38671875 4.36328125 6.07421875 6.42578125 C2.94413952 7.61013555 1.45027151 7.55113217 -1.73828125 6.48828125 C-2.46015625 6.13765625 -3.18203125 5.78703125 -3.92578125 5.42578125 C-3.92578125 6.74578125 -3.92578125 8.06578125 -3.92578125 9.42578125 C-0.95578125 9.92078125 -0.95578125 9.92078125 2.07421875 10.42578125 C1.56817883 12.59452377 1.07438062 14.42545752 0.07421875 16.42578125 C-1.90578125 16.42578125 -3.88578125 16.42578125 -5.92578125 16.42578125 C-5.92578125 17.08578125 -5.92578125 17.74578125 -5.92578125 18.42578125 C-3.28578125 19.08578125 -0.64578125 19.74578125 2.07421875 20.42578125 C1.74421875 21.74578125 1.41421875 23.06578125 1.07421875 24.42578125 C-1.37355964 25.64967045 -2.65968666 25.44214525 -5.36328125 25.17578125 C-6.53697266 25.07523438 -6.53697266 25.07523438 -7.734375 24.97265625 C-10.33744806 24.323048 -11.3127339 23.54607619 -12.92578125 21.42578125 C-13.96119267 14.62164903 -11.5369044 7.66977139 -8.92578125 1.42578125 C-5.4647927 -0.88154445 -3.99452536 -0.61283846 0 0 Z " fill="#97A1B6" transform="translate(78.92578125,615.57421875)"/>
<path d="M0 0 C0.99 0.33 1.98 0.66 3 1 C3 4.3 3 7.6 3 11 C6.3 11 9.6 11 13 11 C13 12.32 13 13.64 13 15 C9.7 15 6.4 15 3 15 C3 18.3 3 21.6 3 25 C1.68 25 0.36 25 -1 25 C-1 21.7 -1 18.4 -1 15 C-4.3 15 -7.6 15 -11 15 C-11 13.68 -11 12.36 -11 11 C-7.7 11 -4.4 11 -1 11 C-1.020625 9.370625 -1.04125 7.74125 -1.0625 6.0625 C-1.08386068 4.37500659 -1.07205511 2.68608966 -1 1 C-0.67 0.67 -0.34 0.34 0 0 Z " fill="#8FA0A5" transform="translate(80,559)"/>
<path d="M0 0 C1.37577361 0.11617644 2.75061045 0.24345777 4.125 0.375 C4.89070312 0.44460937 5.65640625 0.51421875 6.4453125 0.5859375 C9 1 9 1 11.78125 1.94921875 C16.29231759 3.42188523 20.86479913 4.05600364 25.546875 4.76757812 C30.0162665 5.4976863 33.99049615 6.64573163 38.19628906 8.32006836 C40.49269849 9.18572893 42.77062249 9.65640149 45.1875 10.0625 C48.66773684 10.7006328 51.77261731 11.49388808 55 13 C53.32421875 14.56640625 53.32421875 14.56640625 51 16 C48.58203125 15.77734375 48.58203125 15.77734375 45.8125 14.9375 C40.74920365 13.49260811 35.69621869 12.22078017 30.5625 11.0625 C23.25578259 9.37816463 16.12989238 7.33116481 9 5 C9 4.34 9 3.68 9 3 C7.68 3 6.36 3 5 3 C4.67 3.66 4.34 4.32 4 5 C2.68 3.35 1.36 1.7 0 0 Z " fill="#E0E5EC" transform="translate(214,87)"/>
<path d="M0 0 C5.28 0.99 10.56 1.98 16 3 C17 9 17 9 15.0625 12.375 C14.381875 13.24125 13.70125 14.1075 13 15 C8.71 13.68 4.42 12.36 0 11 C0 7.37 0 3.74 0 0 Z " fill="#B8C0C7" transform="translate(364,273)"/>
<path d="M0 0 C0.99 0.33 1.98 0.66 3 1 C4.15638585 11.97281688 0.75137022 22.49064386 -2 33 C-2.33 33 -2.66 33 -3 33 C-3 29.37 -3 25.74 -3 22 C-3.99 24.64 -4.98 27.28 -6 30 C-7.13275004 25.46899984 -6.70825701 25.06288154 -5 21 C-4.45332775 18.33223942 -3.95051357 15.68327865 -3.5 13 C-2.73864726 8.46534959 -1.91084222 4.2170311 0 0 Z " fill="#C4C8CE" transform="translate(487,489)"/>
<path d="M0 0 C2.64116845 2.64116845 3.00103701 4.01265147 3.3125 7.8125 C3.17048026 11.79652751 2.25701255 15.22896236 1 19 C-2.3 19 -5.6 19 -9 19 C-8.38144369 17.3725363 -7.75492695 15.74809644 -7.125 14.125 C-6.77695312 13.22007812 -6.42890625 12.31515625 -6.0703125 11.3828125 C-5 9 -5 9 -3 7 C-1.96157435 4.68351201 -0.9578025 2.35096976 0 0 Z " fill="#E5DAD7" transform="translate(275,345)"/>
<path d="M0 0 C0.66 0 1.32 0 2 0 C3.10215727 9.85983934 2.95573668 19.36478877 2.1875 29.25 C2.10516113 30.32556152 2.02282227 31.40112305 1.93798828 32.50927734 C1.32610223 39.74679395 0.29903698 46.85489594 -1 54 C-1.33 54 -1.66 54 -2 54 C-2.12827752 46.04679375 -1.47100478 38.37130707 -0.375 30.5 C0.30207024 27.15417824 0.30207024 27.15417824 -1 25 C-1.09629649 23.28337877 -1.13075026 21.56306882 -1.1328125 19.84375 C-1.13410156 18.82152344 -1.13539063 17.79929687 -1.13671875 16.74609375 C-1.13285156 15.67488281 -1.12898437 14.60367187 -1.125 13.5 C-1.12886719 12.42878906 -1.13273438 11.35757813 -1.13671875 10.25390625 C-1.13478516 8.72056641 -1.13478516 8.72056641 -1.1328125 7.15625 C-1.13168457 6.21587891 -1.13055664 5.27550781 -1.12939453 4.30664062 C-1 2 -1 2 0 0 Z " fill="#BCCDDB" transform="translate(524,244)"/>
<path d="M0 0 C0.74552124 0.35396851 0.74552124 0.35396851 1.50610352 0.71508789 C3.8579984 1.83139268 6.21022195 2.94700285 8.5625 4.0625 C9.4184375 4.46863525 10.274375 4.87477051 11.15625 5.29321289 C15.26264 7.2392482 19.37178455 9.17813163 23.49609375 11.0859375 C24.51497681 11.55761353 24.51497681 11.55761353 25.55444336 12.03881836 C27.3999077 12.89126587 29.24678925 13.74064332 31.09375 14.58984375 C34 16 34 16 37 18 C35.421875 19.2109375 35.421875 19.2109375 33 20 C30.55064634 18.99687275 28.50718383 17.96262306 26.25 16.625 C24.91919175 15.87413036 23.58711322 15.12550855 22.25390625 14.37890625 C21.21580811 13.79133545 21.21580811 13.79133545 20.15673828 13.19189453 C16.55692214 11.20250101 12.87432085 9.38405513 9.1875 7.5625 C8.50010742 7.22105957 7.81271484 6.87961914 7.10449219 6.52783203 C5.40384299 5.68351073 3.70201545 4.84156374 2 4 C1.34 3.67 0.68 3.34 0 3 C0 2.01 0 1.02 0 0 Z " fill="#B7E9F3" transform="translate(355,30)"/>
<path d="M0 0 C6.18781392 0.45196516 10.56520685 2.55640966 15.9375 5.5625 C16.71673828 5.98724609 17.49597656 6.41199219 18.29882812 6.84960938 C20.20449805 7.89012854 22.10300722 8.94374418 24 10 C23.67 10.66 23.34 11.32 23 12 C18.26210835 10.55676531 14.01141849 8.62773267 9.625 6.375 C8.98433594 6.05015625 8.34367187 5.7253125 7.68359375 5.390625 C6.12052499 4.59742593 4.55999378 3.79922969 3 3 C0.57919742 9.9165788 -1.29977612 16.87352969 -3 24 C-3.33 24 -3.66 24 -4 24 C-3.37679879 17.56025419 -2.35991738 11.32427599 -1 5 C-1.66 4.67 -2.32 4.34 -3 4 C-2.34 4 -1.68 4 -1 4 C-0.67 2.68 -0.34 1.36 0 0 Z " fill="#B5EAF3" transform="translate(324,16)"/>
<path d="M0 0 C0.56332031 0.14695312 1.12664062 0.29390625 1.70703125 0.4453125 C4.02448345 1.00592274 6.34263964 1.44454254 8.6875 1.875 C13.61947297 2.84234091 18.27968337 4.28974035 23 6 C21.33984375 7.5703125 21.33984375 7.5703125 19 9 C16.44140625 8.7421875 16.44140625 8.7421875 13.5625 7.875 C12.51707031 7.57722656 11.47164063 7.27945313 10.39453125 6.97265625 C8.71423828 6.49119141 8.71423828 6.49119141 7 6 C4.58675985 5.42297659 2.17010903 4.86000007 -0.25 4.3125 C-1.89742187 3.93544922 -1.89742187 3.93544922 -3.578125 3.55078125 C-4.37734375 3.36902344 -5.1765625 3.18726562 -6 3 C-6 2.67 -6 2.34 -6 2 C-4.02 2 -2.04 2 0 2 C0 1.34 0 0.68 0 0 Z " fill="#DED9D7" transform="translate(246,94)"/>
<path d="M0 0 C0.33 0 0.66 0 1 0 C0.69191308 11.44542911 -1.05731098 21.94096406 -4 33 C-4.33 33 -4.66 33 -5 33 C-4.7834375 31.081875 -4.7834375 31.081875 -4.5625 29.125 C-4.00185355 24.08719116 -3.49498469 19.04463121 -3 14 C-3.66 14.66 -4.32 15.32 -5 16 C-4.02541328 10.19834261 -2.98746845 5.16017278 0 0 Z " fill="#C1C4CC" transform="translate(484,510)"/>
<path d="M0 0 C1.84252499 2.76378749 2.47156806 4.29553073 3.21875 7.4296875 C3.42798096 8.30133545 3.63721191 9.1729834 3.8527832 10.07104492 C4.06636475 10.9963501 4.27994629 11.92165527 4.5 12.875 C4.83100708 14.29486206 4.83100708 14.29486206 5.16870117 15.7434082 C7.55543974 26.16416659 9.43657989 36.25528387 9 47 C8.67 47 8.34 47 8 47 C6.33618919 38.66001753 4.74331392 30.44675329 4.2109375 21.94140625 C4.2046838 19.99582026 4.2046838 19.99582026 3 19 C2.43301117 16.564592 1.9170229 14.14017935 1.4375 11.6875 C1.29892578 11.01009766 1.16035156 10.33269531 1.01757812 9.63476562 C0.361346 6.32774363 0 3.38844963 0 0 Z " fill="#C8D9E7" transform="translate(516,197)"/>
<path d="M0 0 C1.32 0.33 2.64 0.66 4 1 C3.1875 4.4375 3.1875 4.4375 2 8 C1.01 8.33 0.02 8.66 -1 9 C-1 9.99 -1 10.98 -1 12 C-2.65 11.67 -4.3 11.34 -6 11 C-6.33 10.01 -6.66 9.02 -7 8 C-9.97 7.505 -9.97 7.505 -13 7 C-8.8204355 4.21362367 -6.85331323 5.20437488 -2 6 C-1.34 4.02 -0.68 2.04 0 0 Z " fill="#DFDBD2" transform="translate(309,101)"/>
<path d="M0 0 C4.56805128 0.5374178 7.29831806 2.334789 11 5 C11.639375 5.40734375 12.27875 5.8146875 12.9375 6.234375 C13.576875 6.65203125 14.21625 7.0696875 14.875 7.5 C15.47054688 7.8815625 16.06609375 8.263125 16.6796875 8.65625 C18 10 18 10 18 14 C17.34 14 16.68 14 16 14 C16 13.34 16 12.68 16 12 C14.8553125 11.566875 14.8553125 11.566875 13.6875 11.125 C11 10 11 10 8 8 C8 7.34 8 6.68 8 6 C6.68 5.67 5.36 5.34 4 5 C4 4.34 4 3.68 4 3 C2.68 2.67 1.36 2.34 0 2 C0 1.34 0 0.68 0 0 Z " fill="#ECDBE1" transform="translate(364,589)"/>
<path d="M0 0 C0.66 0.33 1.32 0.66 2 1 C2.0291544 4.39581516 2.04685068 7.79159786 2.0625 11.1875 C2.07087891 12.14720703 2.07925781 13.10691406 2.08789062 14.09570312 C2.09111328 15.02705078 2.09433594 15.95839844 2.09765625 16.91796875 C2.10289307 17.77156982 2.10812988 18.6251709 2.11352539 19.50463867 C1.99579323 22.09246747 1.57107044 24.47661953 1 27 C0.01 27 -0.98 27 -2 27 C-1.84660156 25.88625 -1.69320312 24.7725 -1.53515625 23.625 C-0.92693771 18.75925164 -0.66688586 13.89607197 -0.4375 9 C-0.39431641 8.12988281 -0.35113281 7.25976562 -0.30664062 6.36328125 C-0.20175782 4.24231781 -0.10049925 2.12117567 0 0 Z " fill="#D9C7D1" transform="translate(516,692)"/>
<path d="M0 0 C0.99 0.33 1.98 0.66 3 1 C3.433422 9.15475474 2.29370226 16.17683695 0 24 C-1.00301948 20.87949496 -0.86358157 19.12080513 0 16 C0.06548492 14.41788427 0.08578381 12.83329919 0.0625 11.25 C0.04896484 10.05117188 0.04896484 10.05117188 0.03515625 8.828125 C0.02355469 8.22484375 0.01195312 7.6215625 0 7 C-0.66 7.66 -1.32 8.32 -2 9 C-1.125 1.125 -1.125 1.125 0 0 Z " fill="#D2D8E0" transform="translate(487,489)"/>
<path d="M0 0 C3.39914975 1.13304992 4.05254451 2.12518475 6 5 C5.67 5.66 5.34 6.32 5 7 C4.34 6.67 3.68 6.34 3 6 C3.5053125 7.05960938 4.010625 8.11921875 4.53125 9.2109375 C5.18770131 10.59886314 5.84394033 11.98688919 6.5 13.375 C7.00080078 14.42300781 7.00080078 14.42300781 7.51171875 15.4921875 C10 20.7734375 10 20.7734375 10 23 C9.34 23 8.68 23 8 23 C3.79446468 15.42210145 0.98673089 8.64240157 0 0 Z " fill="#C1DDE9" transform="translate(153,206)"/>
<path d="M0 0 C0.33 0 0.66 0 1 0 C0.67 3.3 0.34 6.6 0 10 C-0.66 10 -1.32 10 -2 10 C-2.18175781 10.88751953 -2.18175781 10.88751953 -2.3671875 11.79296875 C-3.26744643 16.03803585 -4.20456621 20.02439661 -6 24 C-6.66 23.34 -7.32 22.68 -8 22 C-7.54625 20.989375 -7.0925 19.97875 -6.625 18.9375 C-5.08952948 15.36430225 -4.05147662 11.74588547 -3 8 C-2.04479938 5.31408935 -1.02663176 2.65990957 0 0 Z " fill="#D9C8D1" transform="translate(514,720)"/>
<path d="M0 0 C0.66 0.33 1.32 0.66 2 1 C0.35 8.59 -1.3 16.18 -3 24 C-3.33 24 -3.66 24 -4 24 C-3.37679879 17.56025419 -2.35991738 11.32427599 -1 5 C-1.66 4.67 -2.32 4.34 -3 4 C-2.34 4 -1.68 4 -1 4 C-0.67 2.68 -0.34 1.36 0 0 Z " fill="#C7F0F7" transform="translate(324,16)"/>
<path d="M0 0 C2.4375 1.25 2.4375 1.25 5 3 C5.34342449 4.33076989 5.67619874 5.66431979 6 7 C7.64639965 8.35827971 9.31295807 9.69254251 11 11 C11.33 11.99 11.66 12.98 12 14 C8.66950878 12.57369692 6.68261063 10.84985604 4.3125 8.125 C3.71050781 7.44695312 3.10851562 6.76890625 2.48828125 6.0703125 C0.99233806 3.98934166 0.4210244 2.50369174 0 0 Z " fill="#C9DBE5" transform="translate(163,229)"/>
<path d="M0 0 C5.05255964 0.63156995 9.29593201 2.13459373 14 4 C13.01 5.485 13.01 5.485 12 7 C7.39104317 5.68315519 3.85859765 3.84801255 0 1 C0 0.67 0 0.34 0 0 Z " fill="#C9EFF6" transform="translate(378,43)"/>
<path d="M0 0 C0.33 0 0.66 0 1 0 C1.50690584 2.06081361 2.00524619 4.12373526 2.5 6.1875 C2.7784375 7.33605469 3.056875 8.48460937 3.34375 9.66796875 C3.91495385 12.56818829 4.13283779 15.06096385 4 18 C0.9166097 14.9166097 0.08210398 11.71905218 -0.125 7.3828125 C-0.125 4.91864582 -0.08759884 2.46250068 0 0 Z " fill="#F0E2D7" transform="translate(243,507)"/>
<path d="M0 0 C3.3063908 0.55106513 6.19982126 1.09987871 9 3 C9.75 5.125 9.75 5.125 10 7 C8.02 6.34 6.04 5.68 4 5 C4 4.34 4 3.68 4 3 C2.68 2.67 1.36 2.34 0 2 C0 1.34 0 0.68 0 0 Z " fill="#E0D0E1" transform="translate(364,589)"/>
<path d="M0 0 C0.33 0 0.66 0 1 0 C1 3.3 1 6.6 1 10 C0.67 10 0.34 10 0 10 C0 8.35 0 6.7 0 5 C-0.66 5 -1.32 5 -2 5 C-2.33 6.98 -2.66 8.96 -3 11 C-3.75 9.4375 -3.75 9.4375 -4 7 C-2.86915563 4.49713591 -1.47860484 2.32992278 0 0 Z " fill="#C9CDD5" transform="translate(487,495)"/>
<path d="M0 0 C0.66 0 1.32 0 2 0 C1.7834375 1.051875 1.7834375 1.051875 1.5625 2.125 C0.98521625 5.07556141 0.48304859 8.03270151 0 11 C-1.84651134 7.88401212 -2.38079379 5.61754103 -2 2 C-1.34 1.34 -0.68 0.68 0 0 Z " fill="#D9D4DC" transform="translate(276,353)"/>
<path d="M0 0 C1.03719328 3.21456356 0.94068337 5.40925583 0.1875 8.6875 C0.01605469 9.47511719 -0.15539062 10.26273437 -0.33203125 11.07421875 C-1 13 -1 13 -3 14 C-2.88570603 12.22844346 -2.75816963 10.45773771 -2.625 8.6875 C-2.55539062 7.70136719 -2.48578125 6.71523438 -2.4140625 5.69921875 C-2 3 -2 3 0 0 Z " fill="#C0CCD9" transform="translate(521,298)"/>
<path d="M0 0 C4.07006803 2.03503402 5.48529208 6.92194021 7 11 C6.34 11 5.68 11 5 11 C2.25221116 7.41954788 0.53031138 4.5076467 0 0 Z " fill="#C8EAF3" transform="translate(325,99)"/>
<path d="M0 0 C2.31 0 4.62 0 7 0 C6.01 0.495 6.01 0.495 5 1 C5 1.99 5 2.98 5 4 C3.35 3.67 1.7 3.34 0 3 C0 2.01 0 1.02 0 0 Z " fill="#D7D9DE" transform="translate(303,109)"/>
<path d="M0 0 C0.99 0 1.98 0 3 0 C4.5625 2.3125 4.5625 2.3125 6 5 C6.99 6.485 6.99 6.485 8 8 C4.63820226 6.55922954 2.40843732 4.75249979 0 2 C0 1.34 0 0.68 0 0 Z " fill="#BCE1EA" transform="translate(332,109)"/>
</svg>
